<?xml version="1.0" encoding="UTF-8" standalone="no"?>
<!-- Generator: Adobe Illustrator 12.0.0, SVG Export Plug-In . SVG Version: 6.00 Build 51448)  -->

<svg
   xmlns:ns="http://ns.adobe.com/SaveForWeb/1.0/"
   xmlns:dc="http://purl.org/dc/elements/1.1/"
   xmlns:cc="http://creativecommons.org/ns#"
   xmlns:rdf="http://www.w3.org/1999/02/22-rdf-syntax-ns#"
   xmlns:svg="http://www.w3.org/2000/svg"
   xmlns="http://www.w3.org/2000/svg"
   xmlns:xlink="http://www.w3.org/1999/xlink"
   xmlns:sodipodi="http://sodipodi.sourceforge.net/DTD/sodipodi-0.dtd"
   xmlns:inkscape="http://www.inkscape.org/namespaces/inkscape"
   version="1.1"
   id="Layer_1"
   width="128"
   height="128"
   viewBox="0 0 128 128"
   overflow="visible"
   enable-background="new 0 0 128 128"
   xml:space="preserve"
   sodipodi:version="0.32"
   inkscape:version="0.91 r13725"
   sodipodi:docname="document-new.svg"
   inkscape:output_extension="org.inkscape.output.svgz.inkscape"
   inkscape:export-filename="/Users/david/Desktop/sandbox/document-new2.png"
   inkscape:export-xdpi="22.5"
   inkscape:export-ydpi="22.5"><defs
     id="defs105"><linearGradient
       id="linearGradient6740"><stop
         style="stop-color:#004d00;stop-opacity:0;"
         offset="0"
         id="stop6742" /><stop
         id="stop6748"
         offset="0.5"
         style="stop-color:#004d00;stop-opacity:1;" /><stop
         style="stop-color:#004d00;stop-opacity:0;"
         offset="1"
         id="stop6744" /></linearGradient><linearGradient
       gradientTransform="matrix(0,1,-1,0,-39.9985,140.0029)"
       y2="-383.9975"
       x2="-23.516129"
       y1="-383.9971"
       x1="-84.002403"
       gradientUnits="userSpaceOnUse"
       id="linearGradient3711"><stop
         id="stop3713"
         style="stop-color:white;stop-opacity:1;"
         offset="0" /><stop
         id="stop3715"
         style="stop-color:white;stop-opacity:0;"
         offset="1" /></linearGradient><clipPath
       clipPathUnits="userSpaceOnUse"
       id="clipPath5163"><circle
         sodipodi:ry="36"
         sodipodi:rx="36"
         sodipodi:cy="92"
         sodipodi:cx="343.99899"
         style="fill:url(#linearGradient5167);fill-opacity:1"
         r="36"
         rx="8.0010004"
         cx="343.99899"
         cy="92"
         ry="8.0010004"
         id="circle5165" /></clipPath><linearGradient
       id="linearGradient4296"><stop
         id="stop4298"
         offset="0"
         style="stop-color:#00ff00;stop-opacity:1" /><stop
         id="stop4300"
         offset="1"
         style="stop-color:#006500;stop-opacity:1" /></linearGradient><linearGradient
       gradientTransform="matrix(0,1,-1,0,-39.9985,140.0029)"
       y2="-383.9971"
       x2="-12.0029"
       y1="-383.9971"
       x1="-84.002403"
       gradientUnits="userSpaceOnUse"
       id="linearGradient4770"><stop
         id="stop4772"
         style="stop-color:#e5ff00;stop-opacity:1"
         offset="0" /><stop
         id="stop4774"
         style="stop-color:#bff500;stop-opacity:0;"
         offset="1" /></linearGradient><linearGradient
       gradientTransform="matrix(0,1,-1,0,-39.9985,140.0029)"
       y2="-383.9971"
       x2="-12.0029"
       y1="-383.9971"
       x1="-84.002403"
       gradientUnits="userSpaceOnUse"
       id="linearGradient5958"><stop
         id="stop5960"
         style="stop-color:#008c00;stop-opacity:1"
         offset="0" /><stop
         id="stop5962"
         style="stop-color:#00bf00;stop-opacity:1"
         offset="1" /></linearGradient><linearGradient
       y2="0"
       x2="28"
       y1="57.5"
       x1="28"
       gradientUnits="userSpaceOnUse"
       id="linearGradient18668"><stop
         id="stop18670"
         style="stop-color:#fffccf;stop-opacity:1;"
         offset="0" /><stop
         id="stop18672"
         style="stop-color:white;stop-opacity:0;"
         offset="1" /></linearGradient><linearGradient
       id="XMLID_2_"
       gradientUnits="userSpaceOnUse"
       x1="28"
       y1="57.5"
       x2="28"
       y2="0"><stop
         offset="0"
         style="stop-color:#FFEA00"
         id="stop12" /><stop
         offset="1"
         style="stop-color:#FFCC00"
         id="stop14" /></linearGradient><linearGradient
       inkscape:collect="always"
       xlink:href="#XMLID_9_"
       id="linearGradient2291"
       gradientUnits="userSpaceOnUse"
       x1="94.3438"
       y1="102.3447"
       x2="86.5356"
       y2="94.5366" /><linearGradient
       inkscape:collect="always"
       xlink:href="#XMLID_10_"
       id="linearGradient2293"
       gradientUnits="userSpaceOnUse"
       x1="95"
       y1="103"
       x2="86.5865"
       y2="94.5865" /><linearGradient
       inkscape:collect="always"
       xlink:href="#XMLID_11_"
       id="linearGradient2295"
       gradientUnits="userSpaceOnUse"
       x1="95"
       y1="103"
       x2="87.293"
       y2="95.293" /><linearGradient
       inkscape:collect="always"
       xlink:href="#XMLID_12_"
       id="linearGradient2297"
       gradientUnits="userSpaceOnUse"
       x1="96"
       y1="104"
       x2="88.0002"
       y2="96.0002" /><linearGradient
       inkscape:collect="always"
       xlink:href="#XMLID_2_"
       id="linearGradient2299"
       gradientUnits="userSpaceOnUse"
       x1="28"
       y1="57.5"
       x2="28"
       y2="0" /><radialGradient
       inkscape:collect="always"
       xlink:href="#XMLID_8_"
       id="radialGradient2272"
       gradientUnits="userSpaceOnUse"
       gradientTransform="matrix(0.9787234,0,0,0.9818182,1.3617045,1.1636364)"
       cx="102"
       cy="112.3047"
       r="139.55859" /><radialGradient
       inkscape:collect="always"
       xlink:href="#XMLID_7_"
       id="radialGradient2275"
       gradientUnits="userSpaceOnUse"
       gradientTransform="translate(2.4e-6,0)"
       cx="102"
       cy="112.3047"
       r="139.5585" /><radialGradient
       inkscape:collect="always"
       xlink:href="#linearGradient18668"
       id="radialGradient3239"
       gradientUnits="userSpaceOnUse"
       gradientTransform="matrix(1,0,0,1.2916104,-4,-19.57938)"
       cx="30.010139"
       cy="34.750149"
       fx="30.010139"
       fy="34.750149"
       r="20.78125" /><filter
       inkscape:collect="always"
       id="filter3241"><feGaussianBlur
         inkscape:collect="always"
         stdDeviation="1.0394514"
         id="feGaussianBlur3243" /></filter><linearGradient
       inkscape:collect="always"
       xlink:href="#XMLID_4_"
       id="linearGradient4284"
       gradientUnits="userSpaceOnUse"
       gradientTransform="translate(148,19.999992)"
       x1="-13.757333"
       y1="76.708466"
       x2="-62.424866"
       y2="104.80668" /><radialGradient
       gradientUnits="userSpaceOnUse"
       gradientTransform="matrix(0.9792,0,0,0.9725,133.0002,20.8762)"
       r="55.147999"
       cy="-0.2148"
       cx="48"
       id="XMLID_4_"><stop
         id="stop3082"
         style="stop-color:#72D13D"
         offset="0" /><stop
         id="stop3084"
         style="stop-color:#35AC1C"
         offset="0.3553" /><stop
         id="stop3086"
         style="stop-color:#0F9508"
         offset="0.6194" /><stop
         id="stop3088"
         style="stop-color:#008C00"
         offset="0.7574" /><stop
         id="stop3090"
         style="stop-color:#007A00"
         offset="1" /></radialGradient><linearGradient
       inkscape:collect="always"
       xlink:href="#linearGradient3260"
       id="linearGradient4299"
       gradientUnits="userSpaceOnUse"
       spreadMethod="reflect"
       x1="73.742638"
       y1="15.336544"
       x2="80"
       y2="19.281664" /><linearGradient
       id="linearGradient3260"
       inkscape:collect="always"><stop
         id="stop3262"
         offset="0"
         style="stop-color:#ffffff;stop-opacity:1;" /><stop
         id="stop3264"
         offset="1"
         style="stop-color:#ffffff;stop-opacity:0;" /></linearGradient><filter
       id="filter3387"
       height="1.249912"
       y="-0.12495601"
       width="1.2041403"
       x="-0.10207015"
       inkscape:collect="always"><feGaussianBlur
         id="feGaussianBlur3389"
         stdDeviation="0.44655691"
         inkscape:collect="always" /></filter><linearGradient
       inkscape:collect="always"
       xlink:href="#linearGradient5412"
       id="linearGradient4293"
       gradientUnits="userSpaceOnUse"
       spreadMethod="reflect"
       x1="73.742638"
       y1="15.336544"
       x2="80"
       y2="19.281664" /><linearGradient
       id="linearGradient5412"
       gradientUnits="userSpaceOnUse"
       x1="28"
       y1="57.5"
       x2="28"
       y2="0"><stop
         offset="0"
         style="stop-color:#fff14d;stop-opacity:1;"
         id="stop5414" /><stop
         offset="1"
         style="stop-color:#f8ffa0;stop-opacity:0;"
         id="stop5416" /></linearGradient><linearGradient
       inkscape:collect="always"
       xlink:href="#linearGradient3207"
       id="linearGradient4295"
       gradientUnits="userSpaceOnUse"
       gradientTransform="scale(1.039383,0.9621093)"
       x1="64.341988"
       y1="18.50366"
       x2="76.284439"
       y2="18.50366" /><linearGradient
       id="linearGradient3207"><stop
         style="stop-color:#ffffff;stop-opacity:1;"
         offset="0"
         id="stop3209" /><stop
         style="stop-color:#252525;stop-opacity:0;"
         offset="1"
         id="stop3211" /></linearGradient><radialGradient
       inkscape:collect="always"
       xlink:href="#linearGradient3030"
       id="radialGradient4275"
       gradientUnits="userSpaceOnUse"
       gradientTransform="translate(148,19.999992)"
       cx="-44"
       cy="84"
       fx="-60"
       fy="100"
       r="24" /><linearGradient
       id="linearGradient3030"
       inkscape:collect="always"><stop
         id="stop3032"
         offset="0"
         style="stop-color:#000000;stop-opacity:0.77902622" /><stop
         id="stop3034"
         offset="1"
         style="stop-color:#000000;stop-opacity:0;" /></linearGradient><radialGradient
       inkscape:collect="always"
       xlink:href="#XMLID_4_"
       id="radialGradient4271"
       gradientUnits="userSpaceOnUse"
       gradientTransform="translate(148,19.999992)"
       cx="-44"
       cy="84"
       fx="-40"
       fy="96"
       r="20" /><radialGradient
       gradientUnits="userSpaceOnUse"
       gradientTransform="matrix(0.9792,0,0,0.9725,133.0002,20.8762)"
       r="55.147999"
       cy="-0.2148"
       cx="48"
       id="radialGradient4043"><stop
         id="stop4045"
         style="stop-color:#72D13D"
         offset="0" /><stop
         id="stop4047"
         style="stop-color:#35AC1C"
         offset="0.3553" /><stop
         id="stop4049"
         style="stop-color:#0F9508"
         offset="0.6194" /><stop
         id="stop4051"
         style="stop-color:#008C00"
         offset="0.7574" /><stop
         id="stop4053"
         style="stop-color:#007A00"
         offset="1" /></radialGradient><linearGradient
       inkscape:collect="always"
       xlink:href="#linearGradient3202"
       id="linearGradient4268"
       gradientUnits="userSpaceOnUse"
       gradientTransform="translate(85.312496,19.999992)"
       x1="11.68106"
       y1="60.539303"
       x2="11.68106"
       y2="108.0104" /><linearGradient
       id="linearGradient3202"><stop
         style="stop-color:#cbff9c;stop-opacity:1;"
         offset="0"
         id="stop3204" /><stop
         style="stop-color:#65c171;stop-opacity:0"
         offset="1"
         id="stop3206" /></linearGradient><linearGradient
       inkscape:collect="always"
       xlink:href="#linearGradient3260"
       id="linearGradient4265"
       gradientUnits="userSpaceOnUse"
       gradientTransform="translate(85.302361,19.999992)"
       x1="6.6976352"
       y1="52"
       x2="11.68106"
       y2="96.001434" /><linearGradient
       inkscape:collect="always"
       xlink:href="#linearGradient3260"
       id="linearGradient4262"
       gradientUnits="userSpaceOnUse"
       gradientTransform="translate(85.302361,19.999992)"
       x1="26.697636"
       y1="96"
       x2="14.697635"
       y2="72" /><linearGradient
       inkscape:collect="always"
       xlink:href="#linearGradient3225"
       id="linearGradient4259"
       gradientUnits="userSpaceOnUse"
       x1="79.75"
       y1="84"
       x2="120.25"
       y2="84"
       gradientTransform="translate(3.999994,19.999992)" /><linearGradient
       id="linearGradient3225"><stop
         style="stop-color:#ffffff;stop-opacity:1;"
         offset="0"
         id="stop3227" /><stop
         style="stop-color:#aeaeae;stop-opacity:1;"
         offset="1"
         id="stop3229" /></linearGradient><filter
       id="filter3191"
       inkscape:collect="always"><feGaussianBlur
         id="feGaussianBlur3193"
         stdDeviation="0.2025"
         inkscape:collect="always" /></filter><linearGradient
       inkscape:collect="always"
       xlink:href="#linearGradient3260"
       id="linearGradient3602"
       gradientUnits="userSpaceOnUse"
       spreadMethod="reflect"
       x1="73.742638"
       y1="15.336544"
       x2="80"
       y2="19.281664" /><linearGradient
       inkscape:collect="always"
       xlink:href="#linearGradient3260"
       id="linearGradient3604"
       gradientUnits="userSpaceOnUse"
       spreadMethod="reflect"
       x1="73.742638"
       y1="15.336544"
       x2="80"
       y2="19.281664" /><linearGradient
       inkscape:collect="always"
       xlink:href="#linearGradient3260"
       id="linearGradient3606"
       gradientUnits="userSpaceOnUse"
       spreadMethod="reflect"
       x1="73.742638"
       y1="15.336544"
       x2="80"
       y2="19.281664" /></defs><sodipodi:namedview
     inkscape:window-height="1013"
     inkscape:window-width="1623"
     inkscape:pageshadow="2"
     inkscape:pageopacity="0.0"
     guidetolerance="10.0"
     gridtolerance="10.0"
     objecttolerance="10.0"
     borderopacity="1.0"
     bordercolor="#666666"
     pagecolor="#ffffff"
     id="base"
     inkscape:zoom="2.8284271"
     inkscape:cx="4.6367786"
     inkscape:cy="71.573747"
     inkscape:window-x="2"
     inkscape:window-y="34"
     inkscape:current-layer="Layer_1"
     showgrid="true"
     showguides="true"
     inkscape:guide-bbox="true"
     inkscape:window-maximized="0"><inkscape:grid
       id="GridFromPre046Settings"
       type="xygrid"
       originx="0px"
       originy="0px"
       spacingx="4px"
       spacingy="4px"
       color="#3f3fff"
       empcolor="#3f3fff"
       opacity="0.15"
       empopacity="0.38"
       empspacing="2" /></sodipodi:namedview><metadata
     id="metadata3"><ns:sfw><ns:slices><ns:slice
           y="0"
           x="0"
           height="128"
           width="128"
           sliceID="1316743234" /></ns:slices><ns:sliceSourceBounds
         y="0"
         x="0"
         height="128"
         width="128"
         bottomLeftOrigin="true" /><ns:optimizationSettings><ns:targetSettings
           targetSettingsID="0"
           fileFormat="PNG24Format"><ns:PNG24Format
             transparency="true"
             filtered="false"
             matteColor="#FFFFFF"
             noMatteColor="false"
             interlaced="false" /></ns:targetSettings><ns:targetSettings
           targetSettingsID="1696735251"
           fileFormat="PNG24Format"><ns:PNG24Format
             transparency="true"
             filtered="false"
             matteColor="#FFFFFF"
             noMatteColor="false"
             interlaced="false" /></ns:targetSettings></ns:optimizationSettings></ns:sfw><rdf:RDF><cc:Work
         rdf:about=""><dc:format>image/svg+xml</dc:format><dc:type
           rdf:resource="http://purl.org/dc/dcmitype/StillImage" /></cc:Work></rdf:RDF></metadata><radialGradient
     id="XMLID_7_"
     cx="102"
     cy="112.3047"
     r="139.5585"
     gradientUnits="userSpaceOnUse"><stop
       offset="0"
       style="stop-color:#00537D"
       id="stop16" /><stop
       offset="0.0151"
       style="stop-color:#186389"
       id="stop18" /><stop
       offset="0.0558"
       style="stop-color:#558CA8"
       id="stop20" /><stop
       offset="0.0964"
       style="stop-color:#89AFC3"
       id="stop22" /><stop
       offset="0.1357"
       style="stop-color:#B3CCD8"
       id="stop24" /><stop
       offset="0.1737"
       style="stop-color:#D4E2E9"
       id="stop26" /><stop
       offset="0.2099"
       style="stop-color:#ECF2F5"
       id="stop28" /><stop
       offset="0.2435"
       style="stop-color:#FAFCFD"
       id="stop30" /><stop
       offset="0.2722"
       style="stop-color:#FFFFFF"
       id="stop32" /></radialGradient><radialGradient
     id="XMLID_8_"
     cx="102"
     cy="112.3047"
     r="139.55859"
     gradientUnits="userSpaceOnUse"><stop
       offset="0"
       style="stop-color:#535557"
       id="stop37" /><stop
       offset="0.11366145"
       style="stop-color:#898A8C"
       id="stop41" /><stop
       offset="0.20296688"
       style="stop-color:#ECECEC"
       id="stop47" /><stop
       offset="0.2363"
       style="stop-color:#FAFAFA"
       id="stop49" /><stop
       offset="0.2722"
       style="stop-color:#FFFFFF"
       id="stop51" /><stop
       offset="0.5313"
       style="stop-color:#FAFAFA"
       id="stop53" /><stop
       offset="0.8449"
       style="stop-color:#EBECEC"
       id="stop55" /><stop
       offset="1"
       style="stop-color:#E1E2E3"
       id="stop57" /></radialGradient><linearGradient
     id="XMLID_9_"
     gradientUnits="userSpaceOnUse"
     x1="94.3438"
     y1="102.3447"
     x2="86.5356"
     y2="94.5366"><stop
       offset="0"
       style="stop-color:#FFFFFF"
       id="stop62" /><stop
       offset="1"
       style="stop-color:#555753"
       id="stop64" /></linearGradient><linearGradient
     id="XMLID_10_"
     gradientUnits="userSpaceOnUse"
     x1="95"
     y1="103"
     x2="86.5865"
     y2="94.5865"><stop
       offset="0"
       style="stop-color:#FFFFFF"
       id="stop69" /><stop
       offset="1"
       style="stop-color:#555753"
       id="stop71" /></linearGradient><linearGradient
     id="XMLID_11_"
     gradientUnits="userSpaceOnUse"
     x1="95"
     y1="103"
     x2="87.293"
     y2="95.293"><stop
       offset="0"
       style="stop-color:#FFFFFF"
       id="stop76" /><stop
       offset="1"
       style="stop-color:#393B38"
       id="stop78" /></linearGradient><linearGradient
     id="XMLID_12_"
     gradientUnits="userSpaceOnUse"
     x1="96"
     y1="104"
     x2="88.0002"
     y2="96.0002"><stop
       offset="0"
       style="stop-color:#888A85"
       id="stop83" /><stop
       offset="0.0072"
       style="stop-color:#8C8E89"
       id="stop85" /><stop
       offset="0.0673"
       style="stop-color:#ABACA9"
       id="stop87" /><stop
       offset="0.1347"
       style="stop-color:#C5C6C4"
       id="stop89" /><stop
       offset="0.2115"
       style="stop-color:#DBDBDA"
       id="stop91" /><stop
       offset="0.3012"
       style="stop-color:#EBEBEB"
       id="stop93" /><stop
       offset="0.4122"
       style="stop-color:#F7F7F6"
       id="stop95" /><stop
       offset="0.5679"
       style="stop-color:#FDFDFD"
       id="stop97" /><stop
       offset="1"
       style="stop-color:#FFFFFF"
       id="stop99" /></linearGradient><path
     id="path6594"
     d="M 23,9 L 23.040816,121 L 84.172,121 C 84.702,121 85.211,120.789 85.586,120.414 L 118.414,87.586 C 118.789,87.211 119,86.702 119,86.172 L 119,9 L 23,9 z "
     style="opacity:0.5;fill:#000000;fill-opacity:1;filter:url(#filter3241)"
     transform="matrix(1.0416667,0,0,1.0357143,-9.9583333,-3.3215342)"
     sodipodi:nodetypes="cccccccc" /><path
     style="fill:url(#radialGradient2275)"
     d="M 16.000002,8 L 16.000002,120 L 77.172002,120 C 77.702002,120 78.211002,119.789 78.586002,119.414 L 111.414,86.586 C 111.789,86.211 112,85.702 112,85.172 L 112,8 L 16.000002,8 z "
     id="path34"
     sodipodi:nodetypes="cccccccc" /><path
     style="fill:url(#radialGradient2272);fill-opacity:1"
     d="M 18.978725,10 C 18.439449,10 18.000002,10.440836 18.000002,10.981818 L 18.000002,117.01818 C 18.000002,117.56015 18.439449,118 18.978725,118 L 76.891747,118 C 77.149151,118 77.401662,117.89593 77.583704,117.71233 L 109.71323,85.4812 C 109.89626,85.2976 110,85.045273 110,84.787055 L 110,10.981818 C 110,10.440836 109.56153,10 109.02128,10 L 18.978725,10 z "
     id="path59" /><g
     id="g1973"
     transform="translate(2.4e-6,0)"><path
       style="opacity:0.1;fill:url(#linearGradient2291)"
       id="path66"
       d="M 111.414,86.586 C 111.664,86.336 93.035,93 88,93 C 86.346,93 85,94.346 85,96 C 85,101.035 78.336,119.664 78.586,119.414 L 111.414,86.586 z " /><path
       style="opacity:0.1;fill:url(#linearGradient2293)"
       id="path73"
       d="M 111.414,86.586 C 111.789,86.211 97.444,94 88,94 C 86.897,94 86,94.897 86,96 C 86,105.444 78.211,119.789 78.586,119.414 L 111.414,86.586 z " /><path
       style="opacity:0.1;fill:url(#linearGradient2295)"
       id="path80"
       d="M 111.414,86.586 C 111.653,86.347 97.807,95 88,95 C 87.447,95 87,95.447 87,96 C 87,105.807 78.347,119.653 78.586,119.414 L 111.414,86.586 z " /><path
       style="fill:url(#linearGradient2297)"
       id="path101"
       d="M 78.586,119.414 C 78.586,119.414 90.5,109.5 96,104 C 101.5,98.5 111.414,86.586 111.414,86.586 C 111.414,86.586 98.25,96 88,96 C 88,106.25 78.586,119.414 78.586,119.414 z " /></g><g
     transform="translate(214.92589,-100.31048)"
     id="g3232"
     inkscape:label="fill text" /><g
     transform="translate(214.92589,-100.31048)"
     id="g4591"
     inkscape:label="fill text" /><path
     inkscape:connector-curvature="0"
     d="m -259.40214,132.75622 0,-2.79471 0,2.79471 z"
     id="path8227"
     style="fill:#ffffff;fill-opacity:0.75688076;fill-rule:nonzero;stroke:none;stroke-width:0.5;stroke-linecap:round;stroke-linejoin:round;stroke-miterlimit:4;stroke-dasharray:none;stroke-dashoffset:4;stroke-opacity:1"
     sodipodi:nodetypes="ccc" /><path
     inkscape:connector-curvature="0"
     sodipodi:nodetypes="ccc"
     id="path2276"
     d="m 215.3609,-31.05752 0,-2.79471 0,2.79471 z"
     style="fill:#ffffff;fill-opacity:0.75688076;fill-rule:nonzero;stroke:none;stroke-width:0.5;stroke-linecap:round;stroke-linejoin:round;stroke-miterlimit:4;stroke-dasharray:none;stroke-dashoffset:4;stroke-opacity:1" /><path
     inkscape:connector-curvature="0"
     sodipodi:nodetypes="ccc"
     id="path1561"
     d="m 249.73645,22.336159 0,-1.526736 0,1.526736 z"
     style="fill:#ffffff;fill-opacity:0.75688076;fill-rule:nonzero;stroke:none;stroke-width:0.5;stroke-linecap:round;stroke-linejoin:round;stroke-miterlimit:4;stroke-dasharray:none;stroke-dashoffset:4;stroke-opacity:1" /><g
     id="g4225"><path
       inkscape:connector-curvature="0"
       clip-path="none"
       sodipodi:nodetypes="ccccccccccccccccccccc"
       id="path3012"
       d="m 102.0625,79.999992 c -3.317527,0 -6.062504,2.744977 -6.062504,6.0625 l 0,9.9375 -9.9375,0 c -3.317523,0 -6.0625,2.744977 -6.0625,6.062498 l 0,3.875 c 0,3.31753 2.744977,6.0625 6.0625,6.0625 l 9.9375,0 0,9.93751 c 0,3.31752 2.744979,6.0625 6.062504,6.0625 l 3.875,0 c 3.31752,0 6.0625,-2.74498 6.0625,-6.0625 l 0,-9.93751 9.9375,0 c 3.31752,0 6.0625,-2.74497 6.0625,-6.0625 l 0,-3.875 c 0,-3.317521 -2.74498,-6.062498 -6.0625,-6.062498 l -9.9375,0 0,-9.9375 c 0,-3.317523 -2.74498,-6.0625 -6.0625,-6.0625 l -3.875,0 z"
       style="fill:url(#linearGradient4284);fill-opacity:1;stroke:none;stroke-width:8;stroke-linecap:round;stroke-linejoin:round;stroke-miterlimit:4;stroke-dasharray:none;stroke-dashoffset:1.08780003;stroke-opacity:1" /><path
       inkscape:connector-curvature="0"
       clip-path="none"
       style="fill:url(#linearGradient3602);fill-opacity:1;fill-rule:evenodd;stroke:none;stroke-width:1px;stroke-linecap:butt;stroke-linejoin:miter;stroke-opacity:1;filter:url(#filter3387)"
       d="m 69.875971,12.057888 c -1.077088,0.06528 -2.528221,0.219164 -3,0.9375 L 68.465655,24.133449 79,23.37409 79,22.90534 C 80.740958,20.33518 74.219552,11.998548 69.875971,12.057888 Z"
       id="path3091"
       transform="matrix(-0.5,0,0,0.5,136,74.35916)"
       sodipodi:nodetypes="cccccc" /><path
       inkscape:connector-curvature="0"
       clip-path="none"
       sodipodi:nodetypes="cccccc"
       transform="matrix(0.5,0,0,0.5,72.355622,74.35916)"
       id="path3095"
       d="m 69.875971,12.057888 c -1.077088,0.06528 -2.528221,0.219164 -3,0.9375 L 68.172686,21.789699 79,23.37409 79,22.90534 C 80.740958,20.33518 74.219552,11.998548 69.875971,12.057888 Z"
       style="fill:url(#linearGradient3604);fill-opacity:1;fill-rule:evenodd;stroke:none;stroke-width:1px;stroke-linecap:butt;stroke-linejoin:miter;stroke-opacity:1;filter:url(#filter3387)" /><g
       clip-path="none"
       transform="matrix(1,0,0,-1,148,188.38795)"
       id="g3201"><path
         inkscape:connector-curvature="0"
         style="opacity:0.68164804;fill:url(#linearGradient4293);fill-opacity:1;fill-rule:evenodd;stroke:none;stroke-width:1px;stroke-linecap:butt;stroke-linejoin:miter;stroke-opacity:1;filter:url(#filter3387)"
         d="m 69.875971,12.057888 c -1.077088,0.06528 -2.528221,0.219164 -3,0.9375 L 69.051593,23.742824 79,23.37409 79,22.90534 C 80.740958,20.33518 74.219552,11.998548 69.875971,12.057888 Z"
         id="path3197"
         transform="matrix(-0.5,0,0,0.5,-12,54.359168)"
         sodipodi:nodetypes="cccccc" /><path
         inkscape:connector-curvature="0"
         sodipodi:nodetypes="cccccc"
         transform="matrix(0.5,0,0,0.5,-75.644374,54.359168)"
         id="path3199"
         d="m 69.875971,12.057888 c -1.077088,0.06528 -2.528221,0.219164 -3,0.9375 L 67.782061,23.547512 79,23.37409 79,22.90534 C 80.740958,20.33518 74.219552,11.998548 69.875971,12.057888 Z"
         style="opacity:0.70786516;fill:url(#linearGradient4295);fill-opacity:1;fill-rule:evenodd;stroke:none;stroke-width:1px;stroke-linecap:butt;stroke-linejoin:miter;stroke-opacity:1;filter:url(#filter3387)" /></g><path
       inkscape:connector-curvature="0"
       clip-path="none"
       style="opacity:0.55056176;fill:url(#linearGradient3606);fill-opacity:1;fill-rule:evenodd;stroke:none;stroke-width:1px;stroke-linecap:butt;stroke-linejoin:miter;stroke-opacity:1;filter:url(#filter3387)"
       d="m 69.875971,12.057888 c -1.077088,0.06528 -2.528221,0.219164 -3,0.9375 L 68.465655,24.133449 79,23.37409 79,22.90534 C 80.740958,20.33518 74.219552,11.998548 69.875971,12.057888 Z"
       id="path3221"
       transform="matrix(0.5,0,0,0.5,88.355622,89.971206)"
       sodipodi:nodetypes="cccccc" /><path
       inkscape:connector-curvature="0"
       clip-path="none"
       style="opacity:0.58052434;fill:url(#radialGradient4275);fill-opacity:1;stroke:none;stroke-width:8;stroke-linecap:round;stroke-linejoin:round;stroke-miterlimit:4;stroke-dasharray:none;stroke-dashoffset:1.08780003;stroke-opacity:1"
       d="m 102.0625,79.999992 c -3.317527,0 -6.062504,2.744977 -6.062504,6.0625 l 0,9.9375 -9.9375,0 c -3.317523,0 -6.0625,2.744977 -6.0625,6.062498 l 0,3.875 c 0,3.31753 2.744977,6.0625 6.0625,6.0625 l 9.9375,0 0,9.93751 c 0,3.31752 2.744979,6.0625 6.062504,6.0625 l 3.875,0 c 3.31752,0 6.0625,-2.74498 6.0625,-6.0625 l 0,-9.93751 9.9375,0 c 3.31752,0 6.0625,-2.74497 6.0625,-6.0625 l 0,-3.875 c 0,-3.317521 -2.74498,-6.062498 -6.0625,-6.062498 l -9.9375,0 0,-9.9375 c 0,-3.317523 -2.74498,-6.0625 -6.0625,-6.0625 l -3.875,0 z"
       id="path3028"
       sodipodi:nodetypes="ccccccccccccccccccccc" /><path
       inkscape:connector-curvature="0"
       clip-path="none"
       sodipodi:nodetypes="cccccc"
       transform="matrix(-0.5,0,0,0.5,119.64437,89.971206)"
       id="path3217"
       d="m 69.875971,12.057888 c -1.077088,0.06528 -2.528221,0.219164 -3,0.9375 L 68.465655,24.133449 79,23.37409 79,22.90534 C 80.740958,20.33518 74.219552,11.998548 69.875971,12.057888 Z"
       style="opacity:0.55056176;fill:url(#linearGradient4299);fill-opacity:1;fill-rule:evenodd;stroke:none;stroke-width:1px;stroke-linecap:butt;stroke-linejoin:miter;stroke-opacity:1;filter:url(#filter3387)" /><path
       inkscape:connector-curvature="0"
       clip-path="none"
       id="rect2407"
       d="m 102.0625,83.999992 c -1.13397,0 -2.062504,0.928531 -2.062504,2.0625 l 0,13.9375 -13.9375,0 c -1.133969,0 -2.0625,0.928528 -2.0625,2.062498 l 0,3.875 c 0,1.13397 0.928531,2.0625 2.0625,2.0625 l 13.9375,0 0,13.93751 c 0,1.13397 0.928534,2.0625 2.062504,2.0625 l 3.875,0 c 1.13397,0 2.0625,-0.92853 2.0625,-2.0625 l 0,-13.93751 13.9375,0 c 1.13397,0 2.0625,-0.92853 2.0625,-2.0625 l 0,-3.875 c 0,-1.13397 -0.92853,-2.062498 -2.0625,-2.062498 l -13.9375,0 0,-13.9375 c 0,-1.133969 -0.92853,-2.0625 -2.0625,-2.0625 l -3.875,0 z"
       style="fill:url(#radialGradient4271);fill-opacity:1;stroke:none;stroke-width:2;stroke-linecap:round;stroke-linejoin:round;stroke-miterlimit:4;stroke-dasharray:none;stroke-dashoffset:1.08780003;stroke-opacity:1" /><path
       inkscape:connector-curvature="0"
       clip-path="none"
       id="path3038"
       d="m 102.0625,83.999992 c -1.13397,0 -2.062504,0.928531 -2.062504,2.0625 l 0,13.9375 -13.9375,0 c -1.133969,0 -2.0625,0.928528 -2.0625,2.062498 l 0,3.875 c 0,0.1098 0.04575,0.20722 0.0625,0.3125 3.257686,0.46957 6.691341,0.75 10.25,0.75 11.501574,0 21.805844,-2.62983 28.593754,-6.75 -0.28924,-0.15515 -0.61935,-0.249998 -0.96875,-0.249998 l -13.9375,0 0,-13.9375 c 0,-1.133969 -0.92853,-2.0625 -2.0625,-2.0625 l -3.875,0 z"
       style="fill:url(#linearGradient4268);fill-opacity:1;stroke:none;stroke-width:2;stroke-linecap:round;stroke-linejoin:round;stroke-miterlimit:4;stroke-dasharray:none;stroke-dashoffset:1.08780003;stroke-opacity:1" /><path
       inkscape:connector-curvature="0"
       clip-path="none"
       sodipodi:nodetypes="cccccccccsssssssccccccccccccscssscsscccc"
       id="path3062"
       d="m 102.0625,83.999992 c -1.13397,0 -2.062504,0.928531 -2.062504,2.0625 l 0,1 c 0,-1.133969 1.328534,-2.6625 2.462504,-2.6625 l 3.875,0 c 0.28349,0 0.56599,0.05148 0.8125,0.15625 0.11026,0.249518 0.4875,1.124578 0.4875,1.4125 l 0.3625,14.03125 0.0313,-13.9375 c 0,-0.575628 -0.24106,-1.093581 -0.625,-1.46875 -0.0878,-0.08777 -0.17903,-0.179022 -0.28125,-0.25 -0.008,-0.0052 -0.0235,0.0051 -0.0313,0 -0.10208,-0.06913 -0.19867,-0.13727 -0.3125,-0.1875 -0.009,-0.0037 -0.0225,0.0036 -0.0313,0 -0.1146,-0.0487 -0.25111,-0.09763 -0.375,-0.125 -0.0102,-0.0021 -0.021,0.002 -0.0313,0 -0.12367,-0.02549 -0.24455,-0.02921 -0.375,-0.03125 l -0.0313,0 -0.46875,0 -3.40625,0 z m -16.000004,16 c -1.133969,0 -2.0625,0.928528 -2.0625,2.062498 l 0,1 c 0,-1.13397 0.928531,-2.6625 2.0625,-2.6625 l 13.9375,-0.399998 -13.9375,0 z m 21.937504,0 13.75977,0.511718 c -6.7592,3.6271 -17.82247,6.39454 -28.509774,6.39453 -1.779329,0 -3.539543,-0.09 -5.25,-0.21875 2.060394,0.18692 4.179414,0.3125 6.34375,0.3125 10.770064,0 20.483754,-2.32371 27.250004,-6 0.008,-0.004 0.0233,0.004 0.0313,0 0.44256,-0.24123 0.86462,-0.49711 1.28125,-0.75 -0.13631,-0.0731 -0.2853,-0.14478 -0.4375,-0.1875 -0.01,-0.003 -0.0212,0.003 -0.0313,0 -0.15237,-0.0404 -0.30537,-0.0598 -0.46875,-0.0625 l -0.0313,0 -0.46875,0 -13.46875,0 z"
       style="fill:url(#linearGradient4265);fill-opacity:1;stroke:none;stroke-width:2;stroke-linecap:round;stroke-linejoin:round;stroke-miterlimit:4;stroke-dasharray:none;stroke-dashoffset:1.08780003;stroke-opacity:1" /><path
       inkscape:connector-curvature="0"
       clip-path="none"
       style="fill:url(#linearGradient4262);fill-opacity:1;stroke:none;stroke-width:2;stroke-linecap:round;stroke-linejoin:round;stroke-miterlimit:4;stroke-dasharray:none;stroke-dashoffset:1.08780003;stroke-opacity:1"
       d="m 102.0625,83.999992 c -1.13397,0 -2.062504,0.928531 -2.062504,2.0625 l 0,1 c 0,-1.133969 1.328534,-2.6625 2.462504,-2.6625 l 3.875,0 c 0.28349,0 0.56599,0.05148 0.8125,0.15625 0.11026,0.249518 0.4875,1.124578 0.4875,1.4125 l 0.3625,14.03125 0.0313,-13.9375 c 0,-0.575628 -0.24106,-1.093581 -0.625,-1.46875 -0.0878,-0.08777 -0.17903,-0.179022 -0.28125,-0.25 -0.008,-0.0052 -0.0235,0.0051 -0.0313,0 -0.10208,-0.06913 -0.19867,-0.13727 -0.3125,-0.1875 -0.009,-0.0037 -0.0225,0.0036 -0.0313,0 -0.1146,-0.0487 -0.25111,-0.09763 -0.375,-0.125 -0.0102,-0.0021 -0.021,0.002 -0.0313,0 -0.12367,-0.02549 -0.24455,-0.02921 -0.375,-0.03125 l -0.0313,0 -0.46875,0 -3.40625,0 z m -16.000004,16 c -1.133969,0 -2.0625,0.928528 -2.0625,2.062498 l 0,1 c 0,-1.13397 0.928531,-2.6625 2.0625,-2.6625 l 13.9375,-0.399998 -13.9375,0 z m 21.937504,0 13.85742,0.511718 c -6.75919,3.6271 -17.92012,6.39454 -28.607424,6.39453 -1.779329,0 -3.539543,-0.09 -5.25,-0.21875 2.060394,0.18692 4.179414,0.3125 6.34375,0.3125 10.770064,0 20.483754,-2.32371 27.250004,-6 0.008,-0.004 0.0233,0.004 0.0313,0 0.44256,-0.24123 0.86462,-0.49711 1.28125,-0.75 -0.13631,-0.0731 -0.2853,-0.14478 -0.4375,-0.1875 -0.01,-0.003 -0.0212,0.003 -0.0313,0 -0.15237,-0.0404 -0.30537,-0.0598 -0.46875,-0.0625 l -0.0313,0 -0.46875,0 -13.46875,0 z"
       id="path3087"
       sodipodi:nodetypes="cccccccccsssssssccccccccccccscssscsscccc" /><path
       inkscape:connector-curvature="0"
       clip-path="none"
       style="fill:none;fill-opacity:1;stroke:url(#linearGradient4259);stroke-width:0.5;stroke-linecap:round;stroke-linejoin:round;stroke-miterlimit:4;stroke-dasharray:none;stroke-dashoffset:1.08780003;stroke-opacity:1;filter:url(#filter3191)"
       d="m 102.0625,83.999992 c -1.13397,0 -2.062504,0.928531 -2.062504,2.0625 l 0,13.9375 -13.9375,0 c -1.133969,0 -2.0625,0.928528 -2.0625,2.062498 l 0,3.875 c 0,1.13397 0.928531,2.0625 2.0625,2.0625 l 13.9375,0 0,13.93751 c 0,1.13397 0.928534,2.0625 2.062504,2.0625 l 3.875,0 c 1.13397,0 2.0625,-0.92853 2.0625,-2.0625 l 0,-13.93751 13.9375,0 c 1.13397,0 2.0625,-0.92853 2.0625,-2.0625 l 0,-3.875 c 0,-1.13397 -0.92853,-2.062498 -2.0625,-2.062498 l -13.9375,0 0,-13.9375 c 0,-1.133969 -0.92853,-2.0625 -2.0625,-2.0625 l -3.875,0 z"
       id="path3099" /></g></svg>