<?xml version="1.0" encoding="UTF-8" standalone="no"?>
<!-- Generator: Adobe Illustrator 12.0.0, SVG Export Plug-In . SVG Version: 6.00 Build 51448)  -->

<svg
   xmlns:ns="http://ns.adobe.com/SaveForWeb/1.0/"
   xmlns:dc="http://purl.org/dc/elements/1.1/"
   xmlns:cc="http://creativecommons.org/ns#"
   xmlns:rdf="http://www.w3.org/1999/02/22-rdf-syntax-ns#"
   xmlns:svg="http://www.w3.org/2000/svg"
   xmlns="http://www.w3.org/2000/svg"
   xmlns:xlink="http://www.w3.org/1999/xlink"
   xmlns:sodipodi="http://sodipodi.sourceforge.net/DTD/sodipodi-0.dtd"
   xmlns:inkscape="http://www.inkscape.org/namespaces/inkscape"
   version="1.1"
   id="Layer_1"
   width="128"
   height="128"
   viewBox="0 0 128 128"
   overflow="visible"
   enable-background="new 0 0 128 128"
   xml:space="preserve"
   sodipodi:version="0.32"
   inkscape:version="0.91 r13725"
   sodipodi:docname="document-remove.svg"
   inkscape:output_extension="org.inkscape.output.svgz.inkscape"
   inkscape:export-filename="/Users/david/Desktop/sandbox/document-new2.png"
   inkscape:export-xdpi="22.5"
   inkscape:export-ydpi="22.5"><defs
     id="defs105"><linearGradient
       id="linearGradient6740"><stop
         style="stop-color:#004d00;stop-opacity:0;"
         offset="0"
         id="stop6742" /><stop
         id="stop6748"
         offset="0.5"
         style="stop-color:#004d00;stop-opacity:1;" /><stop
         style="stop-color:#004d00;stop-opacity:0;"
         offset="1"
         id="stop6744" /></linearGradient><linearGradient
       gradientTransform="matrix(0,1,-1,0,-39.9985,140.0029)"
       y2="-383.9975"
       x2="-23.516129"
       y1="-383.9971"
       x1="-84.002403"
       gradientUnits="userSpaceOnUse"
       id="linearGradient3711"><stop
         id="stop3713"
         style="stop-color:white;stop-opacity:1;"
         offset="0" /><stop
         id="stop3715"
         style="stop-color:white;stop-opacity:0;"
         offset="1" /></linearGradient><clipPath
       clipPathUnits="userSpaceOnUse"
       id="clipPath5163"><circle
         sodipodi:ry="36"
         sodipodi:rx="36"
         sodipodi:cy="92"
         sodipodi:cx="343.99899"
         style="fill:url(#linearGradient5167);fill-opacity:1"
         r="36"
         rx="8.0010004"
         cx="343.99899"
         cy="92"
         ry="8.0010004"
         id="circle5165" /></clipPath><linearGradient
       id="linearGradient4296"><stop
         id="stop4298"
         offset="0"
         style="stop-color:#00ff00;stop-opacity:1" /><stop
         id="stop4300"
         offset="1"
         style="stop-color:#006500;stop-opacity:1" /></linearGradient><linearGradient
       gradientTransform="matrix(0,1,-1,0,-39.9985,140.0029)"
       y2="-383.9971"
       x2="-12.0029"
       y1="-383.9971"
       x1="-84.002403"
       gradientUnits="userSpaceOnUse"
       id="linearGradient4770"><stop
         id="stop4772"
         style="stop-color:#e5ff00;stop-opacity:1"
         offset="0" /><stop
         id="stop4774"
         style="stop-color:#bff500;stop-opacity:0;"
         offset="1" /></linearGradient><linearGradient
       gradientTransform="matrix(0,1,-1,0,-39.9985,140.0029)"
       y2="-383.9971"
       x2="-12.0029"
       y1="-383.9971"
       x1="-84.002403"
       gradientUnits="userSpaceOnUse"
       id="linearGradient5958"><stop
         id="stop5960"
         style="stop-color:#008c00;stop-opacity:1"
         offset="0" /><stop
         id="stop5962"
         style="stop-color:#00bf00;stop-opacity:1"
         offset="1" /></linearGradient><linearGradient
       y2="0"
       x2="28"
       y1="57.5"
       x1="28"
       gradientUnits="userSpaceOnUse"
       id="linearGradient18668"><stop
         id="stop18670"
         style="stop-color:#fffccf;stop-opacity:1;"
         offset="0" /><stop
         id="stop18672"
         style="stop-color:white;stop-opacity:0;"
         offset="1" /></linearGradient><linearGradient
       id="XMLID_2_"
       gradientUnits="userSpaceOnUse"
       x1="28"
       y1="57.5"
       x2="28"
       y2="0"><stop
         offset="0"
         style="stop-color:#FFEA00"
         id="stop12" /><stop
         offset="1"
         style="stop-color:#FFCC00"
         id="stop14" /></linearGradient><linearGradient
       inkscape:collect="always"
       xlink:href="#XMLID_9_"
       id="linearGradient2291"
       gradientUnits="userSpaceOnUse"
       x1="94.3438"
       y1="102.3447"
       x2="86.5356"
       y2="94.5366" /><linearGradient
       inkscape:collect="always"
       xlink:href="#XMLID_10_"
       id="linearGradient2293"
       gradientUnits="userSpaceOnUse"
       x1="95"
       y1="103"
       x2="86.5865"
       y2="94.5865" /><linearGradient
       inkscape:collect="always"
       xlink:href="#XMLID_11_"
       id="linearGradient2295"
       gradientUnits="userSpaceOnUse"
       x1="95"
       y1="103"
       x2="87.293"
       y2="95.293" /><linearGradient
       inkscape:collect="always"
       xlink:href="#XMLID_12_"
       id="linearGradient2297"
       gradientUnits="userSpaceOnUse"
       x1="96"
       y1="104"
       x2="88.0002"
       y2="96.0002" /><linearGradient
       inkscape:collect="always"
       xlink:href="#XMLID_2_"
       id="linearGradient2299"
       gradientUnits="userSpaceOnUse"
       x1="28"
       y1="57.5"
       x2="28"
       y2="0" /><radialGradient
       inkscape:collect="always"
       xlink:href="#XMLID_8_"
       id="radialGradient2272"
       gradientUnits="userSpaceOnUse"
       gradientTransform="matrix(0.9787234,0,0,0.9818182,1.3617045,1.1636364)"
       cx="102"
       cy="112.3047"
       r="139.55859" /><radialGradient
       inkscape:collect="always"
       xlink:href="#XMLID_7_"
       id="radialGradient2275"
       gradientUnits="userSpaceOnUse"
       gradientTransform="translate(2.4e-6,0)"
       cx="102"
       cy="112.3047"
       r="139.5585" /><radialGradient
       inkscape:collect="always"
       xlink:href="#linearGradient18668"
       id="radialGradient3239"
       gradientUnits="userSpaceOnUse"
       gradientTransform="matrix(1,0,0,1.2916104,-4,-19.57938)"
       cx="30.010139"
       cy="34.750149"
       fx="30.010139"
       fy="34.750149"
       r="20.78125" /><filter
       inkscape:collect="always"
       id="filter3241"><feGaussianBlur
         inkscape:collect="always"
         stdDeviation="1.0394514"
         id="feGaussianBlur3243" /></filter><linearGradient
       inkscape:collect="always"
       xlink:href="#linearGradient5826"
       id="linearGradient7019"
       gradientUnits="userSpaceOnUse"
       gradientTransform="matrix(0.4770136,0,0,0.4770136,73.3792,73.879201)"
       x1="58.743717"
       y1="78.411346"
       x2="58.743717"
       y2="-15.688621" /><linearGradient
       id="linearGradient5826"><stop
         id="stop5828"
         offset="0"
         style="stop-color:#810000;stop-opacity:1;" /><stop
         id="stop5830"
         offset="1"
         style="stop-color:#c50000;stop-opacity:1;" /></linearGradient><clipPath
       id="clipPath3559"
       clipPathUnits="userSpaceOnUse"><path
         inkscape:connector-curvature="0"
         style="fill:url(#linearGradient3563);fill-opacity:1;stroke:none;stroke-width:8;stroke-linecap:round;stroke-linejoin:round;stroke-miterlimit:4;stroke-dashoffset:1.08780003;stroke-opacity:1"
         d="m -64.510272,10.75 c -1.042316,0.0084 -2.040208,0.423209 -2.78125,1.15625 L -84.260272,28.875 c -1.561474,1.562119 -1.561474,4.094131 0,5.65625 L -58.822772,60 l -25.4375,25.46875 c -1.561474,1.562119 -1.561474,4.094131 0,5.65625 l 16.96875,16.96875 c 1.562119,1.56147 4.094131,1.56147 5.65625,0 l 25.46875,-25.4375 25.46875,25.4375 c 1.5621191,1.56147 4.0941311,1.56147 5.6562501,0 L 11.927228,91.125 c 1.56147,-1.562119 1.56147,-4.094131 0,-5.65625 L -13.510272,60 11.927228,34.53125 c 1.56147,-1.562119 1.56147,-4.094131 0,-5.65625 L -5.0415219,11.90625 c -1.562119,-1.561474 -4.094131,-1.561474 -5.6562501,0 l -25.46875,25.4375 -25.46875,-25.4375 c -0.764077,-0.756011 -1.800247,-1.172731 -2.875,-1.15625 z m 31.1875,63.40625 c -0.751409,-0.759464 -1.775386,-1.18681 -2.84375,-1.18681 -1.068364,0 -2.092341,0.427346 -2.84375,1.18681 l 5.6875,0 z"
         id="path3561"
         sodipodi:nodetypes="cccccccccccccccccccccccscc" /></clipPath><filter
       id="filter3549"
       height="1.2960713"
       y="-0.14803563"
       width="1.2328371"
       x="-0.11641854"
       inkscape:collect="always"><feGaussianBlur
         id="feGaussianBlur3551"
         stdDeviation="2.5695681"
         inkscape:collect="always" /></filter><linearGradient
       inkscape:collect="always"
       xlink:href="#linearGradient3499"
       id="linearGradient7021"
       gradientUnits="userSpaceOnUse"
       gradientTransform="scale(1.0975951,0.9110828)"
       x1="26.091133"
       y1="14.856744"
       x2="31.500689"
       y2="14.856744" /><linearGradient
       inkscape:collect="always"
       id="linearGradient3499"><stop
         style="stop-color:#ffffff;stop-opacity:1;"
         offset="0"
         id="stop3501" /><stop
         style="stop-color:#ffffff;stop-opacity:0;"
         offset="1"
         id="stop3503" /></linearGradient><filter
       id="filter3477"
       height="1.2774813"
       y="-0.13874064"
       width="1.279832"
       x="-0.13991599"
       inkscape:collect="always"><feGaussianBlur
         id="feGaussianBlur3479"
         stdDeviation="0.28784801"
         inkscape:collect="always" /></filter><linearGradient
       inkscape:collect="always"
       xlink:href="#linearGradient3489"
       id="linearGradient7023"
       gradientUnits="userSpaceOnUse"
       gradientTransform="scale(1.0975951,0.9110828)"
       x1="26.091133"
       y1="14.856744"
       x2="31.500689"
       y2="14.856744" /><linearGradient
       inkscape:collect="always"
       id="linearGradient3489"><stop
         style="stop-color:#765c44;stop-opacity:1;"
         offset="0"
         id="stop3491" /><stop
         style="stop-color:#765c44;stop-opacity:0;"
         offset="1"
         id="stop3493" /></linearGradient><linearGradient
       inkscape:collect="always"
       xlink:href="#linearGradient3489"
       id="linearGradient7025"
       gradientUnits="userSpaceOnUse"
       x1="304.88663"
       y1="385.86127"
       x2="345.62039"
       y2="384.62384" /><linearGradient
       inkscape:collect="always"
       xlink:href="#linearGradient5433"
       id="linearGradient7027"
       gradientUnits="userSpaceOnUse"
       gradientTransform="matrix(0.4770136,0,0,0.4770136,73.3792,73.879201)"
       x1="55.007042"
       y1="88.460976"
       x2="55.007042"
       y2="36.655769" /><linearGradient
       id="linearGradient5433"><stop
         style="stop-color:#ff0000;stop-opacity:1;"
         offset="0"
         id="stop5435" /><stop
         style="stop-color:#7f0000;stop-opacity:1;"
         offset="1"
         id="stop5437" /></linearGradient><linearGradient
       inkscape:collect="always"
       xlink:href="#linearGradient3366"
       id="linearGradient7029"
       gradientUnits="userSpaceOnUse"
       gradientTransform="translate(56.7,0)"
       spreadMethod="reflect"
       x1="31.90625"
       y1="13.510336"
       x2="34.875107"
       y2="13.510336" /><linearGradient
       id="linearGradient3366"
       inkscape:collect="always"><stop
         id="stop3368"
         offset="0"
         style="stop-color:#ff8787;stop-opacity:1;" /><stop
         id="stop4472"
         offset="1"
         style="stop-color:#ff8787;stop-opacity:0;" /></linearGradient><radialGradient
       inkscape:collect="always"
       xlink:href="#linearGradient3575"
       id="radialGradient7031"
       gradientUnits="userSpaceOnUse"
       gradientTransform="matrix(0.4576062,0,0,0.782313,-19.847694,18.82067)"
       cx="-36.592777"
       cy="90.072952"
       fx="-36.592777"
       fy="90.072952"
       r="25.986174" /><linearGradient
       id="linearGradient3575"
       inkscape:collect="always"><stop
         id="stop3577"
         offset="0"
         style="stop-color:#000000;stop-opacity:1;" /><stop
         id="stop3579"
         offset="1"
         style="stop-color:#000000;stop-opacity:0;" /></linearGradient><clipPath
       id="clipPath5138"
       clipPathUnits="userSpaceOnUse"><path
         inkscape:connector-curvature="0"
         style="fill:url(#linearGradient3563);fill-opacity:1;stroke:none;stroke-width:8;stroke-linecap:round;stroke-linejoin:round;stroke-miterlimit:4;stroke-dashoffset:1.08780003;stroke-opacity:1"
         d="m -64.510272,10.75 c -1.042316,0.0084 -2.040208,0.423209 -2.78125,1.15625 L -84.260272,28.875 c -1.561474,1.562119 -1.561474,4.094131 0,5.65625 L -58.822772,60 l -25.4375,25.46875 c -1.561474,1.562119 -1.561474,4.094131 0,5.65625 l 16.96875,16.96875 c 1.562119,1.56147 4.094131,1.56147 5.65625,0 l 25.46875,-25.4375 25.46875,25.4375 c 1.5621191,1.56147 4.0941311,1.56147 5.6562501,0 L 11.927228,91.125 c 1.56147,-1.562119 1.56147,-4.094131 0,-5.65625 L -13.510272,60 11.927228,34.53125 c 1.56147,-1.562119 1.56147,-4.094131 0,-5.65625 L -5.0415219,11.90625 c -1.562119,-1.561474 -4.094131,-1.561474 -5.6562501,0 l -25.46875,25.4375 -25.46875,-25.4375 c -0.764077,-0.756011 -1.800247,-1.172731 -2.875,-1.15625 z m 31.1875,63.40625 c -0.751409,-0.759464 -1.775386,-1.18681 -2.84375,-1.18681 -1.068364,0 -2.092341,0.427346 -2.84375,1.18681 l 5.6875,0 z"
         id="path5140"
         sodipodi:nodetypes="cccccccccccccccccccccccscc" /></clipPath><linearGradient
       inkscape:collect="always"
       xlink:href="#linearGradient3207"
       id="linearGradient7033"
       gradientUnits="userSpaceOnUse"
       gradientTransform="translate(-0.3,0)"
       spreadMethod="reflect"
       x1="31.90625"
       y1="13.510336"
       x2="34.875107"
       y2="13.510336" /><linearGradient
       id="linearGradient3207"><stop
         style="stop-color:#ffffff;stop-opacity:1;"
         offset="0"
         id="stop3209" /><stop
         style="stop-color:#790000;stop-opacity:0;"
         offset="1"
         id="stop3211" /></linearGradient><linearGradient
       inkscape:collect="always"
       xlink:href="#linearGradient3207"
       id="linearGradient7035"
       gradientUnits="userSpaceOnUse"
       gradientTransform="translate(56.7,0)"
       spreadMethod="reflect"
       x1="31.90625"
       y1="13.510336"
       x2="34.875107"
       y2="13.510336" /><linearGradient
       inkscape:collect="always"
       xlink:href="#linearGradient3163"
       id="linearGradient7037"
       gradientUnits="userSpaceOnUse"
       x1="59.999996"
       y1="92.973083"
       x2="57.434441"
       y2="55.07938" /><linearGradient
       id="linearGradient3163"><stop
         offset="0"
         id="stop3165"
         style="stop-color:#fff5e4;stop-opacity:1;" /><stop
         offset="0.25"
         id="stop3173"
         style="stop-color:#ffecd0;stop-opacity:1;" /><stop
         offset="0.5"
         id="stop3171"
         style="stop-color:#ffd390;stop-opacity:1;" /><stop
         offset="1"
         id="stop3167"
         style="stop-color:#ffc46a;stop-opacity:1;" /></linearGradient><filter
       id="filter3354"
       inkscape:collect="always"><feGaussianBlur
         id="feGaussianBlur3356"
         stdDeviation="0.45754832"
         inkscape:collect="always" /></filter><linearGradient
       inkscape:collect="always"
       xlink:href="#linearGradient3397"
       id="linearGradient7039"
       gradientUnits="userSpaceOnUse"
       gradientTransform="matrix(0.6762458,0,0,0.336478,73.3792,73.879201)"
       x1="68.313011"
       y1="109.97649"
       x2="51.544849"
       y2="32.750854" /><linearGradient
       id="linearGradient3397"><stop
         style="stop-color:#f4f5f8;stop-opacity:1;"
         offset="0"
         id="stop3399" /><stop
         style="stop-color:#fdfdfe;stop-opacity:1;"
         offset="1"
         id="stop3401" /></linearGradient><linearGradient
       inkscape:collect="always"
       xlink:href="#linearGradient3366"
       id="linearGradient7041"
       gradientUnits="userSpaceOnUse"
       gradientTransform="matrix(0.4770136,0,0,0.4770136,73.3792,73.879201)"
       x1="47.264141"
       y1="21.738457"
       x2="47.264141"
       y2="70.357269" /><linearGradient
       inkscape:collect="always"
       xlink:href="#linearGradient3499"
       id="linearGradient7043"
       gradientUnits="userSpaceOnUse"
       gradientTransform="matrix(0.4770136,0,0,0.4770136,73.38515,74.475467)"
       x1="57.654171"
       y1="71.824867"
       x2="56.770992"
       y2="20.362558" /></defs><sodipodi:namedview
     inkscape:window-height="1013"
     inkscape:window-width="1623"
     inkscape:pageshadow="2"
     inkscape:pageopacity="0.0"
     guidetolerance="10.0"
     gridtolerance="10.0"
     objecttolerance="10.0"
     borderopacity="1.0"
     bordercolor="#666666"
     pagecolor="#ffffff"
     id="base"
     inkscape:zoom="2.8284271"
     inkscape:cx="-54.583415"
     inkscape:cy="71.573747"
     inkscape:window-x="-4"
     inkscape:window-y="38"
     inkscape:current-layer="Layer_1"
     showgrid="true"
     showguides="true"
     inkscape:guide-bbox="true"
     inkscape:window-maximized="0"><inkscape:grid
       id="GridFromPre046Settings"
       type="xygrid"
       originx="0px"
       originy="0px"
       spacingx="4px"
       spacingy="4px"
       color="#3f3fff"
       empcolor="#3f3fff"
       opacity="0.15"
       empopacity="0.38"
       empspacing="2" /></sodipodi:namedview><metadata
     id="metadata3"><ns:sfw><ns:slices><ns:slice
           y="0"
           x="0"
           height="128"
           width="128"
           sliceID="1316743234" /></ns:slices><ns:sliceSourceBounds
         y="0"
         x="0"
         height="128"
         width="128"
         bottomLeftOrigin="true" /><ns:optimizationSettings><ns:targetSettings
           targetSettingsID="0"
           fileFormat="PNG24Format"><ns:PNG24Format
             transparency="true"
             filtered="false"
             matteColor="#FFFFFF"
             noMatteColor="false"
             interlaced="false" /></ns:targetSettings><ns:targetSettings
           targetSettingsID="1696735251"
           fileFormat="PNG24Format"><ns:PNG24Format
             transparency="true"
             filtered="false"
             matteColor="#FFFFFF"
             noMatteColor="false"
             interlaced="false" /></ns:targetSettings></ns:optimizationSettings></ns:sfw><rdf:RDF><cc:Work
         rdf:about=""><dc:format>image/svg+xml</dc:format><dc:type
           rdf:resource="http://purl.org/dc/dcmitype/StillImage" /></cc:Work></rdf:RDF></metadata><radialGradient
     id="XMLID_7_"
     cx="102"
     cy="112.3047"
     r="139.5585"
     gradientUnits="userSpaceOnUse"><stop
       offset="0"
       style="stop-color:#00537D"
       id="stop16" /><stop
       offset="0.0151"
       style="stop-color:#186389"
       id="stop18" /><stop
       offset="0.0558"
       style="stop-color:#558CA8"
       id="stop20" /><stop
       offset="0.0964"
       style="stop-color:#89AFC3"
       id="stop22" /><stop
       offset="0.1357"
       style="stop-color:#B3CCD8"
       id="stop24" /><stop
       offset="0.1737"
       style="stop-color:#D4E2E9"
       id="stop26" /><stop
       offset="0.2099"
       style="stop-color:#ECF2F5"
       id="stop28" /><stop
       offset="0.2435"
       style="stop-color:#FAFCFD"
       id="stop30" /><stop
       offset="0.2722"
       style="stop-color:#FFFFFF"
       id="stop32" /></radialGradient><radialGradient
     id="XMLID_8_"
     cx="102"
     cy="112.3047"
     r="139.55859"
     gradientUnits="userSpaceOnUse"><stop
       offset="0"
       style="stop-color:#535557"
       id="stop37" /><stop
       offset="0.11366145"
       style="stop-color:#898A8C"
       id="stop41" /><stop
       offset="0.20296688"
       style="stop-color:#ECECEC"
       id="stop47" /><stop
       offset="0.2363"
       style="stop-color:#FAFAFA"
       id="stop49" /><stop
       offset="0.2722"
       style="stop-color:#FFFFFF"
       id="stop51" /><stop
       offset="0.5313"
       style="stop-color:#FAFAFA"
       id="stop53" /><stop
       offset="0.8449"
       style="stop-color:#EBECEC"
       id="stop55" /><stop
       offset="1"
       style="stop-color:#E1E2E3"
       id="stop57" /></radialGradient><linearGradient
     id="XMLID_9_"
     gradientUnits="userSpaceOnUse"
     x1="94.3438"
     y1="102.3447"
     x2="86.5356"
     y2="94.5366"><stop
       offset="0"
       style="stop-color:#FFFFFF"
       id="stop62" /><stop
       offset="1"
       style="stop-color:#555753"
       id="stop64" /></linearGradient><linearGradient
     id="XMLID_10_"
     gradientUnits="userSpaceOnUse"
     x1="95"
     y1="103"
     x2="86.5865"
     y2="94.5865"><stop
       offset="0"
       style="stop-color:#FFFFFF"
       id="stop69" /><stop
       offset="1"
       style="stop-color:#555753"
       id="stop71" /></linearGradient><linearGradient
     id="XMLID_11_"
     gradientUnits="userSpaceOnUse"
     x1="95"
     y1="103"
     x2="87.293"
     y2="95.293"><stop
       offset="0"
       style="stop-color:#FFFFFF"
       id="stop76" /><stop
       offset="1"
       style="stop-color:#393B38"
       id="stop78" /></linearGradient><linearGradient
     id="XMLID_12_"
     gradientUnits="userSpaceOnUse"
     x1="96"
     y1="104"
     x2="88.0002"
     y2="96.0002"><stop
       offset="0"
       style="stop-color:#888A85"
       id="stop83" /><stop
       offset="0.0072"
       style="stop-color:#8C8E89"
       id="stop85" /><stop
       offset="0.0673"
       style="stop-color:#ABACA9"
       id="stop87" /><stop
       offset="0.1347"
       style="stop-color:#C5C6C4"
       id="stop89" /><stop
       offset="0.2115"
       style="stop-color:#DBDBDA"
       id="stop91" /><stop
       offset="0.3012"
       style="stop-color:#EBEBEB"
       id="stop93" /><stop
       offset="0.4122"
       style="stop-color:#F7F7F6"
       id="stop95" /><stop
       offset="0.5679"
       style="stop-color:#FDFDFD"
       id="stop97" /><stop
       offset="1"
       style="stop-color:#FFFFFF"
       id="stop99" /></linearGradient><path
     id="path6594"
     d="M 23,9 L 23.040816,121 L 84.172,121 C 84.702,121 85.211,120.789 85.586,120.414 L 118.414,87.586 C 118.789,87.211 119,86.702 119,86.172 L 119,9 L 23,9 z "
     style="opacity:0.5;fill:#000000;fill-opacity:1;filter:url(#filter3241)"
     transform="matrix(1.0416667,0,0,1.0357143,-9.9583333,-3.3215342)"
     sodipodi:nodetypes="cccccccc" /><path
     style="fill:url(#radialGradient2275)"
     d="M 16.000002,8 L 16.000002,120 L 77.172002,120 C 77.702002,120 78.211002,119.789 78.586002,119.414 L 111.414,86.586 C 111.789,86.211 112,85.702 112,85.172 L 112,8 L 16.000002,8 z "
     id="path34"
     sodipodi:nodetypes="cccccccc" /><path
     style="fill:url(#radialGradient2272);fill-opacity:1"
     d="M 18.978725,10 C 18.439449,10 18.000002,10.440836 18.000002,10.981818 L 18.000002,117.01818 C 18.000002,117.56015 18.439449,118 18.978725,118 L 76.891747,118 C 77.149151,118 77.401662,117.89593 77.583704,117.71233 L 109.71323,85.4812 C 109.89626,85.2976 110,85.045273 110,84.787055 L 110,10.981818 C 110,10.440836 109.56153,10 109.02128,10 L 18.978725,10 z "
     id="path59" /><g
     id="g1973"
     transform="translate(2.4e-6,0)"><path
       style="opacity:0.1;fill:url(#linearGradient2291)"
       id="path66"
       d="M 111.414,86.586 C 111.664,86.336 93.035,93 88,93 C 86.346,93 85,94.346 85,96 C 85,101.035 78.336,119.664 78.586,119.414 L 111.414,86.586 z " /><path
       style="opacity:0.1;fill:url(#linearGradient2293)"
       id="path73"
       d="M 111.414,86.586 C 111.789,86.211 97.444,94 88,94 C 86.897,94 86,94.897 86,96 C 86,105.444 78.211,119.789 78.586,119.414 L 111.414,86.586 z " /><path
       style="opacity:0.1;fill:url(#linearGradient2295)"
       id="path80"
       d="M 111.414,86.586 C 111.653,86.347 97.807,95 88,95 C 87.447,95 87,95.447 87,96 C 87,105.807 78.347,119.653 78.586,119.414 L 111.414,86.586 z " /><path
       style="fill:url(#linearGradient2297)"
       id="path101"
       d="M 78.586,119.414 C 78.586,119.414 90.5,109.5 96,104 C 101.5,98.5 111.414,86.586 111.414,86.586 C 111.414,86.586 98.25,96 88,96 C 88,106.25 78.586,119.414 78.586,119.414 z " /></g><g
     transform="translate(222.92589,-98.31048)"
     id="g3232"
     inkscape:label="fill text" /><g
     transform="translate(222.92589,-98.31048)"
     id="g4591"
     inkscape:label="fill text" /><g
     id="g7003"
     transform="matrix(1.1276596,0,0,1.1276596,-14.02128,-14.085106)"><path
       inkscape:connector-curvature="0"
       sodipodi:nodetypes="cccccccccccccccccccccccscc"
       id="path3300"
       d="m 88.47965,79.007098 c -0.4972,0.004 -0.97321,0.201873 -1.32669,0.551546 l -8.09432,8.094324 c -0.74485,0.74515 -0.74485,1.952956 0,2.698106 l 12.13403,12.148946 -12.13403,12.14893 c -0.74485,0.74515 -0.74485,1.95296 0,2.69811 l 8.09432,8.09432 c 0.74515,0.74485 1.95295,0.74485 2.6981,0 l 12.14895,-12.13403 12.14893,12.13403 c 0.74516,0.74485 1.95296,0.74485 2.69811,0 l 8.09432,-8.09432 c 0.74485,-0.74515 0.74485,-1.95295 0,-2.69811 l -12.13403,-12.14893 12.13404,-12.148944 c 0.74484,-0.745152 0.74484,-1.952958 -10e-6,-2.69811 l -8.09432,-8.094323 c -0.74515,-0.744843 -1.95295,-0.744845 -2.69811,2e-6 L 102.00001,91.692677 89.85106,79.558642 c -0.36447,-0.360627 -0.85873,-0.559406 -1.37141,-0.551544 z m 14.87686,30.245642 c -0.35843,-0.36228 -0.84688,-0.56613 -1.3565,-0.56613 -0.50963,0 -0.99808,0.20385 -1.35651,0.56613 l 2.71301,0 z"
       style="fill:url(#linearGradient7019);fill-opacity:1;stroke:none;stroke-width:8;stroke-linecap:round;stroke-linejoin:round;stroke-miterlimit:4;stroke-dashoffset:1.08780003;stroke-opacity:1" /><path
       inkscape:connector-curvature="0"
       transform="matrix(0.4770136,0,0,0.4770136,119.27747,73.879199)"
       clip-path="url(#clipPath3559)"
       id="path3507"
       d="M -62.57895,106.7868 -36.415999,79.916739 -10.606602,106.43324 -36.415999,66.128157 -62.57895,106.7868 Z"
       style="fill:#000000;fill-opacity:1;fill-rule:evenodd;stroke:#000000;stroke-width:0.89430439px;stroke-linecap:butt;stroke-linejoin:miter;stroke-opacity:1;filter:url(#filter3549)" /><path
       inkscape:connector-curvature="0"
       transform="matrix(0,0.8892682,-0.8892682,0,134.58273,87.900608)"
       style="opacity:0.49812736;fill:url(#linearGradient7021);fill-opacity:1;fill-rule:evenodd;stroke:none;stroke-width:1px;stroke-linecap:butt;stroke-linejoin:miter;stroke-opacity:1;filter:url(#filter3477)"
       d="m 31.7,16 2.875,-3.375 C 33.523795,10.929242 30.639864,10.336982 28.6375,12.3125 L 31.45,15.6875 31.7,16 Z"
       id="path5159"
       sodipodi:nodetypes="ccccc" /><path
       inkscape:connector-curvature="0"
       transform="matrix(0.8782235,0,0,-0.8782235,60.73951,135.2747)"
       style="opacity:0.79026214;fill:url(#linearGradient7023);fill-opacity:1;fill-rule:evenodd;stroke:none;stroke-width:1px;stroke-linecap:butt;stroke-linejoin:miter;stroke-opacity:1;filter:url(#filter3477)"
       d="m 31.7,16 2.875,-3.375 C 33.523795,10.929242 30.639864,10.336982 28.6375,12.3125 L 31.45,15.6875 31.7,16 Z"
       id="path3485"
       sodipodi:nodetypes="ccccc" /><path
       inkscape:connector-curvature="0"
       sodipodi:nodetypes="ccccc"
       id="path3493"
       d="m 31.7,16 2.875,-3.375 C 33.523795,10.929242 30.639864,10.336982 28.6375,12.3125 L 31.45,15.6875 31.7,16 Z"
       style="opacity:0.49812736;fill:url(#linearGradient7025);fill-opacity:1;fill-rule:evenodd;stroke:none;stroke-width:1px;stroke-linecap:butt;stroke-linejoin:miter;stroke-opacity:1;filter:url(#filter3477)"
       transform="matrix(0,0.8052763,0.8052763,0,70.31204,90.546684)" /><path
       inkscape:connector-curvature="0"
       id="rect2323"
       d="m 115.49198,82.641174 -13.49197,13.491979 -13.49198,-13.491978 -6.36687,6.36686 13.49199,13.491975 -13.49199,13.49198 6.36687,6.36686 L 102,108.86687 l 13.49198,13.49198 6.36686,-6.36686 -13.49198,-13.49198 13.49198,-13.491977 -6.36686,-6.366859 z"
       style="opacity:0.92134836;fill:url(#linearGradient7027);fill-opacity:1;stroke:none;stroke-width:0.69921422;stroke-linecap:round;stroke-linejoin:round;stroke-miterlimit:4;stroke-dasharray:none;stroke-dashoffset:1.08780003;stroke-opacity:0"
       sodipodi:nodetypes="ccccccccccccc" /><path
       inkscape:connector-curvature="0"
       transform="matrix(0.8052763,0,0,-0.8052763,44.32666,134.58564)"
       sodipodi:nodetypes="ccccc"
       id="path3487"
       d="m 88.7,16 2.875,-3.375 C 90.523795,10.929242 87.639864,10.336982 85.6375,12.3125 L 88.45,15.6875 88.7,16 Z"
       style="opacity:0.79026214;fill:url(#linearGradient7029);fill-opacity:1;fill-rule:evenodd;stroke:none;stroke-width:1px;stroke-linecap:butt;stroke-linejoin:miter;stroke-opacity:1;filter:url(#filter3477)" /><path
       inkscape:connector-curvature="0"
       style="fill:url(#radialGradient7031);fill-opacity:1;fill-rule:evenodd;stroke:none;stroke-width:1px;stroke-linecap:butt;stroke-linejoin:miter;stroke-opacity:1;filter:url(#filter3549)"
       d="M -62.57895,106.7868 -36.415999,79.916739 -10.606602,106.43324 -36.415999,66.128157 -62.57895,106.7868 Z"
       id="path3565"
       clip-path="url(#clipPath3559)"
       transform="matrix(0.4770136,0,0,-0.4770136,119.27747,130.89587)" /><path
       inkscape:connector-curvature="0"
       transform="matrix(0.732329,0,0,0.732329,65.33576,71.46747)"
       sodipodi:nodetypes="ccccc"
       id="path3403"
       d="m 31.7,16 2.875,-3.375 C 33.523795,10.929242 30.639864,10.336982 28.6375,12.3125 L 31.45,15.6875 31.7,16 Z"
       style="opacity:0.79026214;fill:url(#linearGradient7033);fill-opacity:1;fill-rule:evenodd;stroke:none;stroke-width:1px;stroke-linecap:butt;stroke-linejoin:miter;stroke-opacity:1;filter:url(#filter3477)" /><path
       inkscape:connector-curvature="0"
       transform="matrix(0.75185,0,0,0.75185,49.05509,71.283073)"
       style="opacity:0.79026214;fill:url(#linearGradient7035);fill-opacity:1;fill-rule:evenodd;stroke:none;stroke-width:1px;stroke-linecap:butt;stroke-linejoin:miter;stroke-opacity:1;filter:url(#filter3477)"
       d="m 88.7,16 2.875,-3.375 C 90.523795,10.929242 87.639864,10.336982 85.6375,12.3125 L 88.45,15.6875 88.7,16 Z"
       id="path3481"
       sodipodi:nodetypes="ccccc" /><path
       inkscape:connector-curvature="0"
       transform="matrix(0.4770136,0,0,0.4770136,73.3792,73.879201)"
       style="opacity:0.92134836;fill:none;fill-opacity:1;stroke:url(#linearGradient7037);stroke-width:2.78857636;stroke-linecap:round;stroke-linejoin:round;stroke-miterlimit:4;stroke-dasharray:none;stroke-dashoffset:1.08780003;stroke-opacity:1;filter:url(#filter3354)"
       d="M 88.284271,18.368396 60,46.652666 31.715729,18.368396 18.368396,31.715729 46.652666,60 18.368396,88.284271 31.715729,101.63161 60,73.347334 88.284271,101.63161 101.63161,88.284271 73.347334,60 101.63161,31.715729 88.284271,18.368396 Z"
       id="path3328"
       sodipodi:nodetypes="ccccccccccccc" /><path
       inkscape:connector-curvature="0"
       sodipodi:nodetypes="cccccccccccsccsccccc"
       id="path3374"
       d="m 88.5008,82.610488 -0.35776,0.35776 -6.00824,6.008233 6.24674,-5.769728 13.61911,12.927813 13.36197,-12.927813 5.35235,5.352341 c -0.0468,0.242108 -0.11002,0.476922 -0.17889,0.715519 l -5.79912,6.753147 c -5.23012,2.607423 -12.52283,5.17937 -20.36336,5.18752 l 0.13416,0.13416 c 0.22495,0.003 0.44462,0.0149 0.6708,0.0149 7.86406,0 13.27157,-1.619472 18.51493,-4.233496 l 7.70718,-7.707174 c 0.0317,-0.109942 0.0612,-0.218527 0.0894,-0.327947 0.0331,-0.128041 0.0642,-0.257022 0.0894,-0.387571 l -6.09768,-6.097674 -0.35776,0.35776 L 102.00065,96.134566 88.5008,82.610488 Z"
       style="fill:url(#linearGradient7039);fill-opacity:1;stroke:none;stroke-width:1.01534986;stroke-linecap:round;stroke-linejoin:round;stroke-miterlimit:4;stroke-dasharray:none;stroke-dashoffset:1.08780003;stroke-opacity:1" /><path
       inkscape:connector-curvature="0"
       id="path5167"
       d="m 88.50946,82.643479 -6.36599,6.365994 12.37296,12.372967 c 0.22495,0.003 0.44463,0.0149 0.6708,0.0149 7.86406,0 13.27157,-1.619471 18.51493,-4.233494 l 7.70718,-7.70717 c 0.0689,-0.238599 0.13207,-0.473416 0.17889,-0.715524 L 115.49055,82.643479 102,96.134018 88.50946,82.643479 Z"
       style="fill:url(#linearGradient7041);fill-opacity:1;stroke:none;stroke-width:1.01534986;stroke-linecap:round;stroke-linejoin:round;stroke-miterlimit:4;stroke-dasharray:none;stroke-dashoffset:1.08780003;stroke-opacity:1"
       sodipodi:nodetypes="cccscccccc" /><path
       inkscape:connector-curvature="0"
       style="fill:url(#linearGradient7043);fill-opacity:1;stroke:none;stroke-width:1.01534986;stroke-linecap:round;stroke-linejoin:round;stroke-miterlimit:4;stroke-dasharray:none;stroke-dashoffset:1.08780003;stroke-opacity:1"
       d="m 88.5008,82.610488 -0.35776,0.35776 -6.00824,6.008233 6.24674,-5.769728 13.62224,13.827748 -0.003,-0.899935 0.005,0.893005 13.35723,-13.820818 5.35235,5.352341 c -0.0468,0.242108 -0.11002,0.476922 -0.17889,0.715519 l -5.79912,6.753147 c -5.23012,2.607423 -12.52283,5.17937 -20.36336,5.18752 l 0.13416,0.13416 c 0.22495,0.003 0.44462,0.0149 0.6708,0.0149 7.86406,0 13.27157,-1.619472 18.51493,-4.233496 l 7.70718,-7.707174 c 0.0317,-0.109942 0.0612,-0.218527 0.0894,-0.327947 0.0331,-0.128041 0.0642,-0.257022 0.0894,-0.387571 l -6.09768,-6.097674 -0.35776,0.35776 L 102.00065,96.134566 88.5008,82.610488 Z"
       id="path3399"
       sodipodi:nodetypes="cccccccccccccsccsccccc" /></g></svg>