<?xml version="1.0" encoding="UTF-8" standalone="no"?>
<!-- Created with Inkscape (http://www.inkscape.org/) -->

<svg
   xmlns:dc="http://purl.org/dc/elements/1.1/"
   xmlns:cc="http://creativecommons.org/ns#"
   xmlns:rdf="http://www.w3.org/1999/02/22-rdf-syntax-ns#"
   xmlns:svg="http://www.w3.org/2000/svg"
   xmlns="http://www.w3.org/2000/svg"
   xmlns:xlink="http://www.w3.org/1999/xlink"
   xmlns:sodipodi="http://sodipodi.sourceforge.net/DTD/sodipodi-0.dtd"
   xmlns:inkscape="http://www.inkscape.org/namespaces/inkscape"
   width="128"
   height="128"
   id="svg2"
   sodipodi:version="0.32"
   inkscape:version="0.91 r13725"
   version="1.0"
   sodipodi:docname="overlay-add.svg"
   inkscape:output_extension="org.inkscape.output.svgz.inkscape"
   inkscape:export-filename="/home/pinheiro/pics/oxygen-icons/scalable/actions/view-calendar.png"
   inkscape:export-xdpi="90"
   inkscape:export-ydpi="90">
  <defs
     id="defs4">
    <inkscape:perspective
       sodipodi:type="inkscape:persp3d"
       inkscape:vp_x="0 : 64 : 1"
       inkscape:vp_y="0 : 1000 : 0"
       inkscape:vp_z="128 : 64 : 1"
       inkscape:persp3d-origin="64 : 42.666667 : 1"
       id="perspective288" />
    <linearGradient
       inkscape:collect="always"
       id="linearGradient10985">
      <stop
         style="stop-color:#ff0000;stop-opacity:1"
         offset="0"
         id="stop10987" />
      <stop
         style="stop-color:#8c0000;stop-opacity:1"
         offset="1"
         id="stop10989" />
    </linearGradient>
    <linearGradient
       inkscape:collect="always"
       id="linearGradient10897">
      <stop
         style="stop-color:#000000;stop-opacity:1;"
         offset="0"
         id="stop10899" />
      <stop
         style="stop-color:#000000;stop-opacity:0;"
         offset="1"
         id="stop10901" />
    </linearGradient>
    <linearGradient
       id="linearGradient10879">
      <stop
         style="stop-color:#000000;stop-opacity:1;"
         offset="0"
         id="stop10881" />
      <stop
         style="stop-color:#006600;stop-opacity:1;"
         offset="1"
         id="stop10883" />
    </linearGradient>
    <linearGradient
       id="linearGradient10964">
      <stop
         style="stop-color:#ffffff;stop-opacity:1;"
         offset="0"
         id="stop10966" />
      <stop
         style="stop-color:#eeeeee;stop-opacity:1"
         offset="1"
         id="stop10968" />
    </linearGradient>
    <linearGradient
       id="linearGradient10207">
      <stop
         id="stop10209"
         offset="0"
         style="stop-color:#a2a2a2;stop-opacity:1;" />
      <stop
         id="stop10211"
         offset="1"
         style="stop-color:#ffffff;stop-opacity:1;" />
    </linearGradient>
    <radialGradient
       gradientTransform="translate(132,20)"
       gradientUnits="userSpaceOnUse"
       r="49.875"
       cy="8.625"
       cx="48.125"
       id="XMLID_3_">
      <stop
         id="stop3065"
         style="stop-color:#D6FFC0"
         offset="0" />
      <stop
         id="stop3067"
         style="stop-color:#CCFAB7"
         offset="0.0735" />
      <stop
         id="stop3073"
         style="stop-color:#4CB544"
         offset="0.61132425" />
      <stop
         id="stop3077"
         style="stop-color:#008C00"
         offset="0.7574" />
    </radialGradient>
    <radialGradient
       gradientUnits="userSpaceOnUse"
       gradientTransform="matrix(0.9792,0,0,0.9725,133.0002,20.8762)"
       r="55.148"
       cy="-0.2148"
       cx="48"
       id="XMLID_4_">
      <stop
         id="stop3082"
         style="stop-color:#72D13D"
         offset="0" />
      <stop
         id="stop3084"
         style="stop-color:#35AC1C"
         offset="0.3553" />
      <stop
         id="stop3086"
         style="stop-color:#0F9508"
         offset="0.6194" />
      <stop
         id="stop3088"
         style="stop-color:#008C00"
         offset="0.7574" />
      <stop
         id="stop3090"
         style="stop-color:#007A00"
         offset="1" />
    </radialGradient>
    <clipPath
       clipPathUnits="userSpaceOnUse"
       id="clipPath10906">
      <rect
         y="40.838711"
         x="0.12903222"
         height="89.032265"
         width="127.74194"
         id="rect10908"
         style="opacity:1;fill:#ffffff;fill-opacity:1;stroke:none;stroke-width:4;stroke-miterlimit:4;stroke-dasharray:none;stroke-opacity:1" />
    </clipPath>
    <clipPath
       clipPathUnits="userSpaceOnUse"
       id="clipPath10917">
      <rect
         y="-13.354839"
         x="-28.903227"
         height="54.19355"
         width="185.80646"
         id="rect10919"
         style="opacity:1;fill:#ffffff;fill-opacity:1;stroke:none;stroke-width:4;stroke-miterlimit:4;stroke-dasharray:none;stroke-opacity:1" />
    </clipPath>
    <linearGradient
       inkscape:collect="always"
       xlink:href="#linearGradient10985"
       id="linearGradient10991"
       x1="65.331223"
       y1="72"
       x2="65.331223"
       y2="80.06089"
       gradientUnits="userSpaceOnUse"
       spreadMethod="reflect" />
    <linearGradient
       inkscape:collect="always"
       xlink:href="#XMLID_4_-3"
       id="linearGradient4284"
       gradientUnits="userSpaceOnUse"
       gradientTransform="translate(148,19.999992)"
       x1="-13.757333"
       y1="76.708466"
       x2="-62.424866"
       y2="104.80668" />
    <radialGradient
       gradientUnits="userSpaceOnUse"
       gradientTransform="matrix(0.9792,0,0,0.9725,133.0002,20.8762)"
       r="55.147999"
       cy="-0.2148"
       cx="48"
       id="XMLID_4_-3">
      <stop
         id="stop3082-6"
         style="stop-color:#72D13D"
         offset="0" />
      <stop
         id="stop3084-7"
         style="stop-color:#35AC1C"
         offset="0.3553" />
      <stop
         id="stop3086-5"
         style="stop-color:#0F9508"
         offset="0.6194" />
      <stop
         id="stop3088-3"
         style="stop-color:#008C00"
         offset="0.7574" />
      <stop
         id="stop3090-5"
         style="stop-color:#007A00"
         offset="1" />
    </radialGradient>
    <linearGradient
       inkscape:collect="always"
       xlink:href="#linearGradient3260"
       id="linearGradient4299"
       gradientUnits="userSpaceOnUse"
       spreadMethod="reflect"
       x1="73.742638"
       y1="15.336544"
       x2="80"
       y2="19.281664" />
    <linearGradient
       id="linearGradient3260"
       inkscape:collect="always">
      <stop
         id="stop3262"
         offset="0"
         style="stop-color:#ffffff;stop-opacity:1;" />
      <stop
         id="stop3264"
         offset="1"
         style="stop-color:#ffffff;stop-opacity:0;" />
    </linearGradient>
    <filter
       id="filter3387"
       height="1.249912"
       y="-0.12495601"
       width="1.2041403"
       x="-0.10207015"
       inkscape:collect="always">
      <feGaussianBlur
         id="feGaussianBlur3389"
         stdDeviation="0.44655691"
         inkscape:collect="always" />
    </filter>
    <linearGradient
       inkscape:collect="always"
       xlink:href="#linearGradient5412"
       id="linearGradient4293"
       gradientUnits="userSpaceOnUse"
       spreadMethod="reflect"
       x1="73.742638"
       y1="15.336544"
       x2="80"
       y2="19.281664" />
    <linearGradient
       id="linearGradient5412"
       gradientUnits="userSpaceOnUse"
       x1="28"
       y1="57.5"
       x2="28"
       y2="0">
      <stop
         offset="0"
         style="stop-color:#fff14d;stop-opacity:1;"
         id="stop5414" />
      <stop
         offset="1"
         style="stop-color:#f8ffa0;stop-opacity:0;"
         id="stop5416" />
    </linearGradient>
    <linearGradient
       inkscape:collect="always"
       xlink:href="#linearGradient3207"
       id="linearGradient4295"
       gradientUnits="userSpaceOnUse"
       gradientTransform="scale(1.039383,0.9621093)"
       x1="64.341988"
       y1="18.50366"
       x2="76.284439"
       y2="18.50366" />
    <linearGradient
       id="linearGradient3207">
      <stop
         style="stop-color:#ffffff;stop-opacity:1;"
         offset="0"
         id="stop3209" />
      <stop
         style="stop-color:#252525;stop-opacity:0;"
         offset="1"
         id="stop3211" />
    </linearGradient>
    <radialGradient
       inkscape:collect="always"
       xlink:href="#linearGradient10897"
       id="radialGradient4275"
       gradientUnits="userSpaceOnUse"
       gradientTransform="translate(148,19.999992)"
       cx="-44"
       cy="84"
       fx="-60"
       fy="100"
       r="24" />
    <radialGradient
       inkscape:collect="always"
       xlink:href="#XMLID_4_-3"
       id="radialGradient4271"
       gradientUnits="userSpaceOnUse"
       gradientTransform="translate(148,19.999992)"
       cx="-44"
       cy="84"
       fx="-40"
       fy="96"
       r="20" />
    <radialGradient
       gradientUnits="userSpaceOnUse"
       gradientTransform="matrix(0.9792,0,0,0.9725,133.0002,20.8762)"
       r="55.147999"
       cy="-0.2148"
       cx="48"
       id="radialGradient4043">
      <stop
         id="stop4045"
         style="stop-color:#72D13D"
         offset="0" />
      <stop
         id="stop4047"
         style="stop-color:#35AC1C"
         offset="0.3553" />
      <stop
         id="stop4049"
         style="stop-color:#0F9508"
         offset="0.6194" />
      <stop
         id="stop4051"
         style="stop-color:#008C00"
         offset="0.7574" />
      <stop
         id="stop4053"
         style="stop-color:#007A00"
         offset="1" />
    </radialGradient>
    <linearGradient
       inkscape:collect="always"
       xlink:href="#linearGradient3202"
       id="linearGradient4268"
       gradientUnits="userSpaceOnUse"
       gradientTransform="translate(85.312496,19.999992)"
       x1="11.68106"
       y1="60.539303"
       x2="11.68106"
       y2="108.0104" />
    <linearGradient
       id="linearGradient3202">
      <stop
         style="stop-color:#cbff9c;stop-opacity:1;"
         offset="0"
         id="stop3204" />
      <stop
         style="stop-color:#65c171;stop-opacity:0"
         offset="1"
         id="stop3206" />
    </linearGradient>
    <linearGradient
       inkscape:collect="always"
       xlink:href="#linearGradient3260"
       id="linearGradient4265"
       gradientUnits="userSpaceOnUse"
       gradientTransform="translate(85.302361,19.999992)"
       x1="6.6976352"
       y1="52"
       x2="11.68106"
       y2="96.001434" />
    <linearGradient
       inkscape:collect="always"
       xlink:href="#linearGradient3260"
       id="linearGradient4262"
       gradientUnits="userSpaceOnUse"
       gradientTransform="translate(85.302361,19.999992)"
       x1="26.697636"
       y1="96"
       x2="14.697635"
       y2="72" />
    <linearGradient
       inkscape:collect="always"
       xlink:href="#linearGradient3225"
       id="linearGradient4259"
       gradientUnits="userSpaceOnUse"
       x1="79.75"
       y1="84"
       x2="120.25"
       y2="84"
       gradientTransform="translate(3.999994,19.999992)" />
    <linearGradient
       id="linearGradient3225">
      <stop
         style="stop-color:#ffffff;stop-opacity:1;"
         offset="0"
         id="stop3227" />
      <stop
         style="stop-color:#aeaeae;stop-opacity:1;"
         offset="1"
         id="stop3229" />
    </linearGradient>
    <filter
       id="filter3191"
       inkscape:collect="always">
      <feGaussianBlur
         id="feGaussianBlur3193"
         stdDeviation="0.2025"
         inkscape:collect="always" />
    </filter>
    <linearGradient
       inkscape:collect="always"
       xlink:href="#linearGradient3260"
       id="linearGradient3780"
       gradientUnits="userSpaceOnUse"
       spreadMethod="reflect"
       x1="73.742638"
       y1="15.336544"
       x2="80"
       y2="19.281664" />
    <linearGradient
       inkscape:collect="always"
       xlink:href="#linearGradient3260"
       id="linearGradient3782"
       gradientUnits="userSpaceOnUse"
       spreadMethod="reflect"
       x1="73.742638"
       y1="15.336544"
       x2="80"
       y2="19.281664" />
    <linearGradient
       inkscape:collect="always"
       xlink:href="#linearGradient3260"
       id="linearGradient3784"
       gradientUnits="userSpaceOnUse"
       spreadMethod="reflect"
       x1="73.742638"
       y1="15.336544"
       x2="80"
       y2="19.281664" />
  </defs>
  <sodipodi:namedview
     id="base"
     pagecolor="#ffffff"
     bordercolor="#666666"
     borderopacity="1.0"
     gridtolerance="50"
     guidetolerance="10"
     objecttolerance="10"
     inkscape:pageopacity="0.0"
     inkscape:pageshadow="2"
     inkscape:zoom="1"
     inkscape:cx="-177.47781"
     inkscape:cy="62"
     inkscape:document-units="px"
     inkscape:current-layer="layer1"
     width="128px"
     height="128px"
     showgrid="false"
     showborder="false"
     inkscape:window-width="1920"
     inkscape:window-height="982"
     inkscape:window-x="0"
     inkscape:window-y="28"
     inkscape:grid-bbox="true"
     inkscape:window-maximized="1">
    <inkscape:grid
       id="GridFromPre046Settings"
       type="xygrid"
       originx="0px"
       originy="0px"
       spacingx="4px"
       spacingy="4px"
       color="#0000ff"
       empcolor="#0000ff"
       opacity="0.2"
       empopacity="0.4"
       empspacing="2" />
  </sodipodi:namedview>
  <metadata
     id="metadata7">
    <rdf:RDF>
      <cc:Work
         rdf:about="">
        <dc:format>image/svg+xml</dc:format>
        <dc:type
           rdf:resource="http://purl.org/dc/dcmitype/StillImage" />
        <dc:title></dc:title>
      </cc:Work>
    </rdf:RDF>
  </metadata>
  <g
     inkscape:label="Layer 1"
     inkscape:groupmode="layer"
     id="layer1">
    <g
       transform="translate(210.75874,-103.76248)"
       id="g3232"
       inkscape:label="fill text" />
    <g
       transform="translate(210.75874,-103.76248)"
       id="g4591"
       inkscape:label="fill text" />
    <path
       inkscape:connector-curvature="0"
       d="m -263.5693,129.30423 0,-2.79472 0,2.79472 z"
       id="path8227"
       style="fill:#ffffff;fill-opacity:0.75688076;fill-rule:nonzero;stroke:none;stroke-width:0.5;stroke-linecap:round;stroke-linejoin:round;stroke-miterlimit:4;stroke-dasharray:none;stroke-dashoffset:4;stroke-opacity:1"
       sodipodi:nodetypes="ccc" />
    <g
       transform="translate(-219.16716,-31.451998)"
       id="g4225">
      <path
         inkscape:connector-curvature="0"
         clip-path="none"
         sodipodi:nodetypes="ccccccccccccccccccccc"
         id="path3012"
         d="m 102.0625,79.999992 c -3.317527,0 -6.062504,2.744977 -6.062504,6.0625 l 0,9.9375 -9.9375,0 c -3.317523,0 -6.0625,2.744977 -6.0625,6.062498 l 0,3.875 c 0,3.31753 2.744977,6.0625 6.0625,6.0625 l 9.9375,0 0,9.93751 c 0,3.31752 2.744979,6.0625 6.062504,6.0625 l 3.875,0 c 3.31752,0 6.0625,-2.74498 6.0625,-6.0625 l 0,-9.93751 9.9375,0 c 3.31752,0 6.0625,-2.74497 6.0625,-6.0625 l 0,-3.875 c 0,-3.317521 -2.74498,-6.062498 -6.0625,-6.062498 l -9.9375,0 0,-9.9375 c 0,-3.317523 -2.74498,-6.0625 -6.0625,-6.0625 l -3.875,0 z"
         style="fill:url(#linearGradient4284);fill-opacity:1;stroke:none;stroke-width:8;stroke-linecap:round;stroke-linejoin:round;stroke-miterlimit:4;stroke-dasharray:none;stroke-dashoffset:1.08780003;stroke-opacity:1" />
      <path
         inkscape:connector-curvature="0"
         clip-path="none"
         style="fill:url(#linearGradient3780);fill-opacity:1;fill-rule:evenodd;stroke:none;stroke-width:1px;stroke-linecap:butt;stroke-linejoin:miter;stroke-opacity:1;filter:url(#filter3387)"
         d="m 69.875971,12.057888 c -1.077088,0.06528 -2.528221,0.219164 -3,0.9375 L 68.465655,24.133449 79,23.37409 79,22.90534 C 80.740958,20.33518 74.219552,11.998548 69.875971,12.057888 Z"
         id="path3091"
         transform="matrix(-0.5,0,0,0.5,136,74.35916)"
         sodipodi:nodetypes="cccccc" />
      <path
         inkscape:connector-curvature="0"
         clip-path="none"
         sodipodi:nodetypes="cccccc"
         transform="matrix(0.5,0,0,0.5,72.355622,74.35916)"
         id="path3095"
         d="m 69.875971,12.057888 c -1.077088,0.06528 -2.528221,0.219164 -3,0.9375 L 68.172686,21.789699 79,23.37409 79,22.90534 C 80.740958,20.33518 74.219552,11.998548 69.875971,12.057888 Z"
         style="fill:url(#linearGradient3782);fill-opacity:1;fill-rule:evenodd;stroke:none;stroke-width:1px;stroke-linecap:butt;stroke-linejoin:miter;stroke-opacity:1;filter:url(#filter3387)" />
      <g
         clip-path="none"
         transform="matrix(1,0,0,-1,148,188.38795)"
         id="g3201">
        <path
           inkscape:connector-curvature="0"
           style="opacity:0.68164804;fill:url(#linearGradient4293);fill-opacity:1;fill-rule:evenodd;stroke:none;stroke-width:1px;stroke-linecap:butt;stroke-linejoin:miter;stroke-opacity:1;filter:url(#filter3387)"
           d="m 69.875971,12.057888 c -1.077088,0.06528 -2.528221,0.219164 -3,0.9375 L 69.051593,23.742824 79,23.37409 79,22.90534 C 80.740958,20.33518 74.219552,11.998548 69.875971,12.057888 Z"
           id="path3197"
           transform="matrix(-0.5,0,0,0.5,-12,54.359168)"
           sodipodi:nodetypes="cccccc" />
        <path
           inkscape:connector-curvature="0"
           sodipodi:nodetypes="cccccc"
           transform="matrix(0.5,0,0,0.5,-75.644374,54.359168)"
           id="path3199"
           d="m 69.875971,12.057888 c -1.077088,0.06528 -2.528221,0.219164 -3,0.9375 L 67.782061,23.547512 79,23.37409 79,22.90534 C 80.740958,20.33518 74.219552,11.998548 69.875971,12.057888 Z"
           style="opacity:0.70786516;fill:url(#linearGradient4295);fill-opacity:1;fill-rule:evenodd;stroke:none;stroke-width:1px;stroke-linecap:butt;stroke-linejoin:miter;stroke-opacity:1;filter:url(#filter3387)" />
      </g>
      <path
         inkscape:connector-curvature="0"
         clip-path="none"
         style="opacity:0.55056176;fill:url(#linearGradient3784);fill-opacity:1;fill-rule:evenodd;stroke:none;stroke-width:1px;stroke-linecap:butt;stroke-linejoin:miter;stroke-opacity:1;filter:url(#filter3387)"
         d="m 69.875971,12.057888 c -1.077088,0.06528 -2.528221,0.219164 -3,0.9375 L 68.465655,24.133449 79,23.37409 79,22.90534 C 80.740958,20.33518 74.219552,11.998548 69.875971,12.057888 Z"
         id="path3221"
         transform="matrix(0.5,0,0,0.5,88.355622,89.971206)"
         sodipodi:nodetypes="cccccc" />
      <path
         inkscape:connector-curvature="0"
         clip-path="none"
         style="opacity:0.58052434;fill:url(#radialGradient4275);fill-opacity:1;stroke:none;stroke-width:8;stroke-linecap:round;stroke-linejoin:round;stroke-miterlimit:4;stroke-dasharray:none;stroke-dashoffset:1.08780003;stroke-opacity:1"
         d="m 102.0625,79.999992 c -3.317527,0 -6.062504,2.744977 -6.062504,6.0625 l 0,9.9375 -9.9375,0 c -3.317523,0 -6.0625,2.744977 -6.0625,6.062498 l 0,3.875 c 0,3.31753 2.744977,6.0625 6.0625,6.0625 l 9.9375,0 0,9.93751 c 0,3.31752 2.744979,6.0625 6.062504,6.0625 l 3.875,0 c 3.31752,0 6.0625,-2.74498 6.0625,-6.0625 l 0,-9.93751 9.9375,0 c 3.31752,0 6.0625,-2.74497 6.0625,-6.0625 l 0,-3.875 c 0,-3.317521 -2.74498,-6.062498 -6.0625,-6.062498 l -9.9375,0 0,-9.9375 c 0,-3.317523 -2.74498,-6.0625 -6.0625,-6.0625 l -3.875,0 z"
         id="path3028"
         sodipodi:nodetypes="ccccccccccccccccccccc" />
      <path
         inkscape:connector-curvature="0"
         clip-path="none"
         sodipodi:nodetypes="cccccc"
         transform="matrix(-0.5,0,0,0.5,119.64437,89.971206)"
         id="path3217"
         d="m 69.875971,12.057888 c -1.077088,0.06528 -2.528221,0.219164 -3,0.9375 L 68.465655,24.133449 79,23.37409 79,22.90534 C 80.740958,20.33518 74.219552,11.998548 69.875971,12.057888 Z"
         style="opacity:0.55056176;fill:url(#linearGradient4299);fill-opacity:1;fill-rule:evenodd;stroke:none;stroke-width:1px;stroke-linecap:butt;stroke-linejoin:miter;stroke-opacity:1;filter:url(#filter3387)" />
      <path
         inkscape:connector-curvature="0"
         clip-path="none"
         id="rect2407"
         d="m 102.0625,83.999992 c -1.13397,0 -2.062504,0.928531 -2.062504,2.0625 l 0,13.9375 -13.9375,0 c -1.133969,0 -2.0625,0.928528 -2.0625,2.062498 l 0,3.875 c 0,1.13397 0.928531,2.0625 2.0625,2.0625 l 13.9375,0 0,13.93751 c 0,1.13397 0.928534,2.0625 2.062504,2.0625 l 3.875,0 c 1.13397,0 2.0625,-0.92853 2.0625,-2.0625 l 0,-13.93751 13.9375,0 c 1.13397,0 2.0625,-0.92853 2.0625,-2.0625 l 0,-3.875 c 0,-1.13397 -0.92853,-2.062498 -2.0625,-2.062498 l -13.9375,0 0,-13.9375 c 0,-1.133969 -0.92853,-2.0625 -2.0625,-2.0625 l -3.875,0 z"
         style="fill:url(#radialGradient4271);fill-opacity:1;stroke:none;stroke-width:2;stroke-linecap:round;stroke-linejoin:round;stroke-miterlimit:4;stroke-dasharray:none;stroke-dashoffset:1.08780003;stroke-opacity:1" />
      <path
         inkscape:connector-curvature="0"
         clip-path="none"
         id="path3038"
         d="m 102.0625,83.999992 c -1.13397,0 -2.062504,0.928531 -2.062504,2.0625 l 0,13.9375 -13.9375,0 c -1.133969,0 -2.0625,0.928528 -2.0625,2.062498 l 0,3.875 c 0,0.1098 0.04575,0.20722 0.0625,0.3125 3.257686,0.46957 6.691341,0.75 10.25,0.75 11.501574,0 21.805844,-2.62983 28.593754,-6.75 -0.28924,-0.15515 -0.61935,-0.249998 -0.96875,-0.249998 l -13.9375,0 0,-13.9375 c 0,-1.133969 -0.92853,-2.0625 -2.0625,-2.0625 l -3.875,0 z"
         style="fill:url(#linearGradient4268);fill-opacity:1;stroke:none;stroke-width:2;stroke-linecap:round;stroke-linejoin:round;stroke-miterlimit:4;stroke-dasharray:none;stroke-dashoffset:1.08780003;stroke-opacity:1" />
      <path
         inkscape:connector-curvature="0"
         clip-path="none"
         sodipodi:nodetypes="cccccccccsssssssccccccccccccscssscsscccc"
         id="path3062"
         d="m 102.0625,83.999992 c -1.13397,0 -2.062504,0.928531 -2.062504,2.0625 l 0,1 c 0,-1.133969 1.328534,-2.6625 2.462504,-2.6625 l 3.875,0 c 0.28349,0 0.56599,0.05148 0.8125,0.15625 0.11026,0.249518 0.4875,1.124578 0.4875,1.4125 l 0.3625,14.03125 0.0313,-13.9375 c 0,-0.575628 -0.24106,-1.093581 -0.625,-1.46875 -0.0878,-0.08777 -0.17903,-0.179022 -0.28125,-0.25 -0.008,-0.0052 -0.0235,0.0051 -0.0313,0 -0.10208,-0.06913 -0.19867,-0.13727 -0.3125,-0.1875 -0.009,-0.0037 -0.0225,0.0036 -0.0313,0 -0.1146,-0.0487 -0.25111,-0.09763 -0.375,-0.125 -0.0102,-0.0021 -0.021,0.002 -0.0313,0 -0.12367,-0.02549 -0.24455,-0.02921 -0.375,-0.03125 l -0.0313,0 -0.46875,0 -3.40625,0 z m -16.000004,16 c -1.133969,0 -2.0625,0.928528 -2.0625,2.062498 l 0,1 c 0,-1.13397 0.928531,-2.6625 2.0625,-2.6625 l 13.9375,-0.399998 -13.9375,0 z m 21.937504,0 13.75977,0.511718 c -6.7592,3.6271 -17.82247,6.39454 -28.509774,6.39453 -1.779329,0 -3.539543,-0.09 -5.25,-0.21875 2.060394,0.18692 4.179414,0.3125 6.34375,0.3125 10.770064,0 20.483754,-2.32371 27.250004,-6 0.008,-0.004 0.0233,0.004 0.0313,0 0.44256,-0.24123 0.86462,-0.49711 1.28125,-0.75 -0.13631,-0.0731 -0.2853,-0.14478 -0.4375,-0.1875 -0.01,-0.003 -0.0212,0.003 -0.0313,0 -0.15237,-0.0404 -0.30537,-0.0598 -0.46875,-0.0625 l -0.0313,0 -0.46875,0 -13.46875,0 z"
         style="fill:url(#linearGradient4265);fill-opacity:1;stroke:none;stroke-width:2;stroke-linecap:round;stroke-linejoin:round;stroke-miterlimit:4;stroke-dasharray:none;stroke-dashoffset:1.08780003;stroke-opacity:1" />
      <path
         inkscape:connector-curvature="0"
         clip-path="none"
         style="fill:url(#linearGradient4262);fill-opacity:1;stroke:none;stroke-width:2;stroke-linecap:round;stroke-linejoin:round;stroke-miterlimit:4;stroke-dasharray:none;stroke-dashoffset:1.08780003;stroke-opacity:1"
         d="m 102.0625,83.999992 c -1.13397,0 -2.062504,0.928531 -2.062504,2.0625 l 0,1 c 0,-1.133969 1.328534,-2.6625 2.462504,-2.6625 l 3.875,0 c 0.28349,0 0.56599,0.05148 0.8125,0.15625 0.11026,0.249518 0.4875,1.124578 0.4875,1.4125 l 0.3625,14.03125 0.0313,-13.9375 c 0,-0.575628 -0.24106,-1.093581 -0.625,-1.46875 -0.0878,-0.08777 -0.17903,-0.179022 -0.28125,-0.25 -0.008,-0.0052 -0.0235,0.0051 -0.0313,0 -0.10208,-0.06913 -0.19867,-0.13727 -0.3125,-0.1875 -0.009,-0.0037 -0.0225,0.0036 -0.0313,0 -0.1146,-0.0487 -0.25111,-0.09763 -0.375,-0.125 -0.0102,-0.0021 -0.021,0.002 -0.0313,0 -0.12367,-0.02549 -0.24455,-0.02921 -0.375,-0.03125 l -0.0313,0 -0.46875,0 -3.40625,0 z m -16.000004,16 c -1.133969,0 -2.0625,0.928528 -2.0625,2.062498 l 0,1 c 0,-1.13397 0.928531,-2.6625 2.0625,-2.6625 l 13.9375,-0.399998 -13.9375,0 z m 21.937504,0 13.85742,0.511718 c -6.75919,3.6271 -17.92012,6.39454 -28.607424,6.39453 -1.779329,0 -3.539543,-0.09 -5.25,-0.21875 2.060394,0.18692 4.179414,0.3125 6.34375,0.3125 10.770064,0 20.483754,-2.32371 27.250004,-6 0.008,-0.004 0.0233,0.004 0.0313,0 0.44256,-0.24123 0.86462,-0.49711 1.28125,-0.75 -0.13631,-0.0731 -0.2853,-0.14478 -0.4375,-0.1875 -0.01,-0.003 -0.0212,0.003 -0.0313,0 -0.15237,-0.0404 -0.30537,-0.0598 -0.46875,-0.0625 l -0.0313,0 -0.46875,0 -13.46875,0 z"
         id="path3087"
         sodipodi:nodetypes="cccccccccsssssssccccccccccccscssscsscccc" />
      <path
         inkscape:connector-curvature="0"
         clip-path="none"
         style="fill:none;fill-opacity:1;stroke:url(#linearGradient4259);stroke-width:0.5;stroke-linecap:round;stroke-linejoin:round;stroke-miterlimit:4;stroke-dasharray:none;stroke-dashoffset:1.08780003;stroke-opacity:1;filter:url(#filter3191)"
         d="m 102.0625,83.999992 c -1.13397,0 -2.062504,0.928531 -2.062504,2.0625 l 0,13.9375 -13.9375,0 c -1.133969,0 -2.0625,0.928528 -2.0625,2.062498 l 0,3.875 c 0,1.13397 0.928531,2.0625 2.0625,2.0625 l 13.9375,0 0,13.93751 c 0,1.13397 0.928534,2.0625 2.062504,2.0625 l 3.875,0 c 1.13397,0 2.0625,-0.92853 2.0625,-2.0625 l 0,-13.93751 13.9375,0 c 1.13397,0 2.0625,-0.92853 2.0625,-2.0625 l 0,-3.875 c 0,-1.13397 -0.92853,-2.062498 -2.0625,-2.062498 l -13.9375,0 0,-13.9375 c 0,-1.133969 -0.92853,-2.0625 -2.0625,-2.0625 l -3.875,0 z"
         id="path3099" />
    </g>
  </g>
</svg>
